<svg width="1280" height="714" viewBox="0 0 1280 714" fill="none" xmlns="http://www.w3.org/2000/svg">
<g clip-path="url(#clip0_94_393)">
<path d="M1314.5 710.211C1333.16 710.211 1346.49 702.838 1346.49 686.426C1346.49 668.586 1338.49 656.693 1322.5 647.774L1328.79 638.735C1329.11 638.142 1329.28 637.465 1329.29 636.774C1329.3 636.082 1329.14 635.399 1328.84 634.796C1328.54 634.192 1328.1 633.688 1327.56 633.336C1327.03 632.983 1326.42 632.795 1325.8 632.789H1303.2C1302.58 632.795 1301.97 632.983 1301.44 633.336C1300.9 633.688 1300.46 634.192 1300.16 634.796C1299.86 635.399 1299.7 636.082 1299.71 636.774C1299.72 637.465 1299.89 638.142 1300.21 638.735L1306.5 647.833C1290.51 656.812 1282.52 668.705 1282.52 686.544C1282.52 702.838 1295.84 710.211 1314.5 710.211Z" fill="#FDDC5C"/>
<path fill-rule="evenodd" clip-rule="evenodd" d="M1303.2 628.994L1303.16 628.994C1301.83 629.007 1300.54 629.415 1299.43 630.147C1298.32 630.876 1297.45 631.892 1296.86 633.061C1296.28 634.228 1295.99 635.526 1296.01 636.827C1296.02 638.128 1296.35 639.418 1296.97 640.569C1297.04 640.693 1297.11 640.813 1297.19 640.928L1301.14 646.645C1294.48 650.885 1289.17 655.838 1285.4 661.804C1280.96 668.837 1278.81 677.012 1278.81 686.545C1278.81 695.935 1282.74 703.045 1289.45 707.642C1295.96 712.1 1304.78 714.006 1314.5 714.006C1324.22 714.006 1333.04 712.1 1339.55 707.623C1346.27 703.006 1350.19 695.865 1350.19 686.426C1350.19 676.893 1348.04 668.717 1343.6 661.691C1339.83 655.736 1334.53 650.8 1327.87 646.584L1331.8 640.938C1331.89 640.819 1331.96 640.696 1332.03 640.569C1332.65 639.418 1332.98 638.128 1332.99 636.827C1333.01 635.526 1332.72 634.228 1332.14 633.061C1331.55 631.892 1330.68 630.876 1329.57 630.147C1328.46 629.415 1327.17 629.007 1325.84 628.994L1325.8 628.994H1303.2ZM1309.53 645.641L1303.43 636.817C1303.42 636.789 1303.42 636.756 1303.42 636.72C1303.42 636.667 1303.42 636.621 1303.43 636.584H1325.57C1325.58 636.621 1325.58 636.667 1325.58 636.72C1325.58 636.755 1325.58 636.787 1325.57 636.814L1319.48 645.571C1318.86 646.456 1318.65 647.568 1318.89 648.626C1319.12 649.684 1319.79 650.587 1320.72 651.106C1328.35 655.359 1333.81 660.176 1337.38 665.819C1340.93 671.429 1342.78 678.119 1342.78 686.426C1342.78 693.398 1340.04 698.15 1335.42 701.323C1330.61 704.635 1323.44 706.417 1314.5 706.417C1305.56 706.417 1298.39 704.636 1293.57 701.334C1288.95 698.171 1286.22 693.448 1286.22 686.545C1286.22 678.238 1288.07 671.547 1291.62 665.928C1295.2 660.276 1300.66 655.444 1308.29 651.161C1309.21 650.641 1309.88 649.74 1310.11 648.686C1310.35 647.632 1310.14 646.524 1309.53 645.641ZM1324.01 666.77C1325.52 663.302 1325.51 663.302 1325.51 663.301L1325.49 663.292L1325.46 663.276L1325.35 663.23C1325.27 663.194 1325.15 663.146 1325.01 663.09C1324.73 662.978 1324.34 662.831 1323.86 662.674C1322.92 662.362 1321.58 661.994 1320.06 661.79C1317.16 661.402 1312.67 661.51 1309.29 664.972C1306.93 667.388 1306.25 670.548 1306.04 673.194C1305.96 674.171 1305.94 675.216 1305.95 676.257H1304.13C1302.08 676.257 1300.42 677.956 1300.42 680.051C1300.42 682.147 1302.08 683.846 1304.13 683.846H1305.98C1305.9 684.923 1305.73 685.808 1305.46 686.534C1305.08 687.54 1304.48 688.31 1303.02 688.823C1302.76 688.907 1302.51 689.019 1302.28 689.156C1301.83 689.422 1301.44 689.777 1301.15 690.191C1300.82 690.647 1300.58 691.182 1300.48 691.763C1300.4 692.185 1300.4 692.624 1300.47 693.063C1300.54 693.496 1300.68 693.905 1300.88 694.276C1301.16 694.794 1301.54 695.226 1301.99 695.552C1302.4 695.847 1302.87 696.06 1303.38 696.165C1303.65 696.222 1303.93 696.249 1304.22 696.242H1324.88C1326.92 696.242 1328.58 694.543 1328.58 692.447C1328.58 690.351 1326.92 688.652 1324.88 688.652H1312.59C1313.09 687.079 1313.32 685.426 1313.41 683.846H1321.42C1323.46 683.846 1325.12 682.147 1325.12 680.051C1325.12 677.956 1323.46 676.257 1321.42 676.257H1313.35C1313.35 675.413 1313.36 674.612 1313.42 673.819C1313.59 671.82 1314.02 670.857 1314.53 670.339C1315.47 669.374 1317.03 669.039 1319.1 669.315C1320.06 669.444 1320.94 669.683 1321.59 669.898C1321.91 670.003 1322.16 670.098 1322.32 670.163C1322.4 670.195 1322.46 670.219 1322.49 670.232L1322.52 670.243C1324.39 671.084 1326.57 670.222 1327.4 668.311C1328.23 666.396 1327.38 664.152 1325.51 663.301L1324.01 666.77Z" fill="#0C098C"/>
</g>
<g clip-path="url(#clip1_94_393)">
<path d="M1084.57 647.58H1038.29C1034.03 647.58 1030.57 650.81 1030.57 654.795V689.062C1030.57 697.031 1037.48 703.491 1046 703.491H1076.86C1085.38 703.491 1092.29 697.031 1092.29 689.062V654.795C1092.29 650.81 1088.83 647.58 1084.57 647.58Z" fill="#FDDC5C"/>
<path fill-rule="evenodd" clip-rule="evenodd" d="M1045.26 636.475C1042.77 634.608 1042.36 631.204 1044.36 628.87C1045.14 627.959 1045.4 627.424 1045.48 627.188C1045.4 627.048 1045.13 626.644 1044.31 625.648L1044.14 625.447C1043.2 624.329 1041.31 622.075 1040.81 619.098C1040.21 615.5 1041.69 612.15 1044.36 609.031C1046.35 606.697 1050 606.319 1052.49 608.186C1054.99 610.053 1055.39 613.458 1053.39 615.791C1052.61 616.702 1052.35 617.237 1052.27 617.473C1052.36 617.614 1052.62 618.017 1053.45 619.013L1053.61 619.215C1054.55 620.332 1056.44 622.586 1056.94 625.563C1057.55 629.162 1056.06 632.511 1053.39 635.63C1051.4 637.964 1047.76 638.342 1045.26 636.475ZM1052.24 617.62C1052.24 617.62 1052.24 617.596 1052.25 617.544C1052.25 617.593 1052.24 617.62 1052.24 617.62ZM1045.51 627.041C1045.51 627.041 1045.51 627.065 1045.5 627.117C1045.5 627.068 1045.51 627.041 1045.51 627.041ZM1038.29 643.072C1031.36 643.072 1025.75 648.32 1025.75 654.795V689.062C1025.75 699.522 1034.82 708 1046 708H1076.86C1086.38 708 1094.37 701.853 1096.53 693.571H1098.07C1110.85 693.571 1121.21 683.882 1121.21 671.929C1121.21 659.976 1110.85 650.286 1098.07 650.286H1096.15C1094.26 646.049 1089.79 643.072 1084.57 643.072H1038.29ZM1097.11 661.107V682.75H1098.07C1104.46 682.75 1109.64 677.905 1109.64 671.929C1109.64 665.952 1104.46 661.107 1098.07 661.107H1097.11ZM1035.39 654.795C1035.39 653.301 1036.69 652.09 1038.29 652.09H1084.57C1086.17 652.09 1087.46 653.301 1087.46 654.795V689.062C1087.46 694.541 1082.72 698.982 1076.86 698.982H1046C1040.14 698.982 1035.39 694.541 1035.39 689.062V654.795ZM1069.43 628.87C1067.43 631.204 1067.84 634.608 1070.33 636.475C1072.83 638.342 1076.47 637.964 1078.47 635.63C1081.13 632.511 1082.62 629.162 1082.01 625.563C1081.51 622.586 1079.62 620.332 1078.69 619.215L1078.52 619.013C1077.69 618.017 1077.43 617.614 1077.35 617.473C1077.43 617.237 1077.69 616.702 1078.47 615.791C1080.46 613.458 1080.06 610.053 1077.56 608.186C1075.07 606.319 1071.43 606.697 1069.43 609.031C1066.76 612.15 1065.28 615.5 1065.88 619.098C1066.38 622.075 1068.27 624.329 1069.21 625.447L1069.38 625.648C1070.2 626.644 1070.47 627.048 1070.55 627.188C1070.47 627.424 1070.21 627.959 1069.43 628.87ZM1077.31 617.62C1077.31 617.62 1077.31 617.596 1077.32 617.544C1077.32 617.593 1077.31 617.62 1077.31 617.62ZM1070.58 627.041C1070.58 627.041 1070.58 627.065 1070.57 627.117C1070.57 627.068 1070.58 627.041 1070.58 627.041Z" fill="#0C098C"/>
</g>
<g clip-path="url(#clip2_94_393)">
<path fill-rule="evenodd" clip-rule="evenodd" d="M1154.97 559.186H1177.69C1175.81 560.333 1174.01 561.69 1172.43 563.295C1169.52 566.247 1166.89 570.566 1166.89 576.018V606.028C1159.66 603.794 1154.97 600.145 1154.97 596.044V559.186ZM1178.81 612.875V576.018H1236.03V612.875C1236.03 619.632 1223.31 625.161 1207.42 625.161C1191.53 625.161 1178.81 619.632 1178.81 612.875Z" fill="#FDDC5C"/>
<path fill-rule="evenodd" clip-rule="evenodd" d="M1183.58 543.061C1175.26 543.061 1167.53 544.503 1161.74 546.991C1158.85 548.233 1156.26 549.811 1154.34 551.758C1152.41 553.724 1151 556.241 1151 559.186V596.044C1151 599.053 1152.47 601.616 1154.47 603.605C1156.46 605.576 1159.14 607.17 1162.15 608.417C1164.16 609.253 1166.5 608.351 1167.37 606.402C1168.23 604.454 1167.3 602.197 1165.28 601.36C1162.89 600.368 1161.2 599.272 1160.17 598.247C1159.15 597.239 1158.95 596.498 1158.95 596.044V588.451C1159.96 589.012 1161.03 589.524 1162.15 589.988C1164.16 590.824 1166.5 589.923 1167.37 587.974C1168.23 586.026 1167.3 583.768 1165.28 582.932C1162.89 581.939 1161.2 580.843 1160.17 579.818C1159.15 578.81 1158.95 578.07 1158.95 577.615V570.018C1159.83 570.512 1160.77 570.966 1161.74 571.382C1163.39 572.09 1165.19 572.714 1167.12 573.243C1167.83 569.087 1170.03 565.727 1172.43 563.295C1175.28 560.396 1178.85 558.308 1182.35 556.805C1189.38 553.787 1198.25 552.214 1207.42 552.214C1209.45 552.214 1211.47 552.291 1213.45 552.444C1213.25 552.209 1213.04 551.98 1212.82 551.758C1210.9 549.811 1208.31 548.233 1205.42 546.991C1199.63 544.503 1191.9 543.061 1183.58 543.061ZM1240 576.018C1240 573.072 1238.59 570.555 1236.66 568.589C1234.74 566.642 1232.15 565.064 1229.26 563.822C1223.47 561.334 1215.74 559.893 1207.42 559.893C1199.1 559.893 1191.37 561.334 1185.58 563.822C1182.69 565.064 1180.1 566.642 1178.18 568.589C1176.25 570.555 1174.84 573.072 1174.84 576.018V612.875C1174.84 615.809 1176.24 618.321 1178.16 620.286C1180.07 622.232 1182.65 623.813 1185.54 625.058C1191.32 627.552 1199.05 629 1207.42 629C1215.79 629 1223.52 627.552 1229.3 625.058C1232.19 623.813 1234.77 622.232 1236.68 620.286C1238.6 618.321 1240 615.809 1240 612.875V576.018ZM1182.79 586.85C1183.67 587.343 1184.61 587.797 1185.58 588.214C1191.37 590.702 1199.1 592.143 1207.42 592.143C1215.74 592.143 1223.47 590.702 1229.26 588.214C1230.23 587.797 1231.17 587.343 1232.05 586.85V594.446C1232.05 594.891 1231.86 595.605 1230.91 596.576C1229.94 597.567 1228.34 598.635 1226.06 599.617C1221.52 601.577 1214.94 602.893 1207.42 602.893C1199.9 602.893 1193.32 601.577 1188.78 599.617C1186.5 598.635 1184.9 597.567 1183.93 596.576C1182.98 595.605 1182.79 594.891 1182.79 594.446V586.85ZM1185.54 606.63C1184.58 606.217 1183.66 605.769 1182.79 605.282V612.875C1182.79 613.32 1182.98 614.033 1183.93 615.004C1184.9 615.995 1186.5 617.064 1188.78 618.045C1193.32 620.005 1199.9 621.321 1207.42 621.321C1214.94 621.321 1221.52 620.005 1226.06 618.045C1228.34 617.064 1229.94 615.995 1230.91 615.004C1231.86 614.033 1232.05 613.32 1232.05 612.875V605.282C1231.18 605.769 1230.26 606.217 1229.3 606.63C1223.52 609.124 1215.79 610.571 1207.42 610.571C1199.05 610.571 1191.32 609.124 1185.54 606.63Z" fill="#0C098C"/>
</g>
<path d="M1091.94 17.9655L1101.61 32.5295C1102.62 34.0462 1103.16 35.8379 1103.16 37.6719C1103.16 39.9081 1102.36 42.0667 1100.91 43.7397L1069.11 80.4342C1067.81 81.9296 1065.95 82.7857 1064 82.7857C1062.05 82.7857 1060.19 81.9296 1058.89 80.4342L1027.09 43.7397C1025.64 42.0667 1024.84 39.9081 1024.84 37.6719C1024.84 35.8379 1025.38 34.0462 1026.39 32.5295L1036.06 17.9655C1037.21 16.2444 1039.11 15.2143 1041.14 15.2143H1086.86C1088.89 15.2143 1090.79 16.2444 1091.94 17.9655Z" fill="#FF7972"/>
<path fill-rule="evenodd" clip-rule="evenodd" d="M1071.19 19.1428L1080.51 35.2347H1047.49L1056.81 19.1428H1071.19ZM1030.3 41.5204L1061.76 77.8275C1061.87 77.952 1061.99 78.0664 1062.11 78.1695L1047.12 41.5204H1030.3ZM1081 41.5204L1065.91 78.1531C1066.02 78.0538 1066.13 77.9457 1066.24 77.8275L1097.7 41.5204H1081ZM1095.11 15.7564C1093.25 12.9597 1090.16 11.2857 1086.86 11.2857H1041.14C1037.84 11.2857 1034.75 12.9597 1032.89 15.7564L1023.21 30.3204C1021.77 32.4886 1021 35.05 1021 37.6719C1021 40.8687 1022.14 43.9546 1024.22 46.3463L1056.02 83.0409C1058.04 85.3773 1060.95 86.7143 1064 86.7143C1067.05 86.7143 1069.96 85.3773 1071.98 83.0409L1103.78 46.3463C1105.86 43.9546 1107 40.8687 1107 37.6719C1107 35.05 1106.23 32.4886 1104.79 30.3204L1095.11 15.7564Z" fill="#0C098C"/>
<g clip-path="url(#clip3_94_393)">
<path d="M1195.5 146.033C1214.16 146.033 1227.49 138.312 1227.49 121.128C1227.49 102.449 1219.49 89.9966 1203.5 80.6572L1209.79 71.1933C1210.11 70.5723 1210.28 69.8638 1210.29 69.1394C1210.3 68.415 1210.14 67.7005 1209.84 67.0683C1209.54 66.4362 1209.1 65.9089 1208.56 65.5399C1208.03 65.1709 1207.42 64.9732 1206.8 64.967H1184.2C1183.58 64.9732 1182.97 65.1709 1182.44 65.5399C1181.9 65.9089 1181.46 66.4362 1181.16 67.0683C1180.86 67.7005 1180.7 68.415 1180.71 69.1394C1180.72 69.8638 1180.89 70.5723 1181.21 71.1933L1187.5 80.7195C1171.51 90.1211 1163.52 102.574 1163.52 121.252C1163.52 138.312 1176.84 146.033 1195.5 146.033Z" fill="#FF7972"/>
<path fill-rule="evenodd" clip-rule="evenodd" d="M1184.2 60.994L1184.16 60.9941C1182.83 61.0076 1181.54 61.435 1180.43 62.2007C1179.32 62.9643 1178.45 64.0281 1177.86 65.2518C1177.28 66.4743 1176.99 67.8334 1177.01 69.1956C1177.02 70.5578 1177.35 71.9083 1177.97 73.1131C1178.04 73.2429 1178.11 73.3685 1178.19 73.4894L1182.14 79.4751C1175.48 83.9152 1170.17 89.1006 1166.4 95.3481C1161.96 102.711 1159.81 111.271 1159.81 121.253C1159.81 131.085 1163.74 138.53 1170.45 143.343C1176.96 148.011 1185.78 150.006 1195.5 150.006C1205.22 150.006 1214.04 148.011 1220.55 143.323C1227.27 138.489 1231.19 131.012 1231.19 121.128C1231.19 111.147 1229.04 102.586 1224.6 95.2296C1220.83 88.9946 1215.53 83.8255 1208.87 79.411L1212.8 73.4995C1212.89 73.3754 1212.96 73.2465 1213.03 73.1131C1213.65 71.9083 1213.98 70.5577 1213.99 69.1956C1214.01 67.8335 1213.72 66.4743 1213.14 65.2518C1212.55 64.0281 1211.68 62.9643 1210.57 62.2007C1209.46 61.435 1208.17 61.0076 1206.84 60.9941L1206.8 60.994H1184.2ZM1190.53 78.4236L1184.43 69.1848C1184.42 69.1553 1184.42 69.1213 1184.42 69.0834C1184.42 69.0279 1184.42 68.9792 1184.43 68.9404H1206.57C1206.58 68.9792 1206.58 69.0279 1206.58 69.0834C1206.58 69.1201 1206.58 69.1532 1206.57 69.182L1200.48 78.3513C1199.86 79.2772 1199.65 80.4414 1199.89 81.5494C1200.12 82.6573 1200.79 83.6029 1201.72 84.1467C1209.35 88.5995 1214.81 93.6432 1218.38 99.5512C1221.93 105.425 1223.78 112.43 1223.78 121.128C1223.78 128.429 1221.04 133.404 1216.42 136.726C1211.61 140.195 1204.44 142.06 1195.5 142.06C1186.56 142.06 1179.39 140.195 1174.57 136.738C1169.95 133.426 1167.22 128.48 1167.22 121.253C1167.22 112.555 1169.07 105.549 1172.62 99.6662C1176.2 93.7483 1181.66 88.6883 1189.29 84.2036C1190.21 83.6589 1190.88 82.7162 1191.11 81.6122C1191.35 80.5083 1191.14 79.3482 1190.53 78.4236ZM1183.4 103.911H1193.22C1194.16 104.279 1195.54 105.233 1196.34 106.957H1183.4C1181.35 106.957 1179.69 108.736 1179.69 110.93C1179.69 113.124 1181.35 114.903 1183.4 114.903H1194.83C1194.13 115.523 1193.27 116.039 1192.31 116.483C1190.92 117.122 1189.48 117.499 1188.36 117.713C1187.81 117.819 1187.36 117.881 1187.05 117.916C1186.9 117.934 1186.79 117.944 1186.72 117.95L1186.65 117.955L1186.64 117.956C1185.14 118.047 1183.84 119.101 1183.35 120.625C1182.86 122.153 1183.28 123.848 1184.41 124.913L1186.85 121.923C1184.41 124.913 1184.41 124.912 1184.41 124.913L1184.42 124.92L1184.54 125.031C1184.61 125.094 1184.71 125.18 1184.83 125.288C1185.07 125.502 1185.42 125.799 1185.87 126.159C1186.77 126.878 1188.05 127.85 1189.68 128.911C1192.93 131.026 1197.6 133.535 1203.24 135.048C1205.23 135.581 1207.24 134.286 1207.74 132.157C1208.23 130.028 1207.03 127.871 1205.04 127.339C1201.48 126.383 1198.34 124.941 1195.81 123.507C1198.82 122.001 1202.17 119.335 1203.64 114.903H1207.6C1209.65 114.903 1211.31 113.124 1211.31 110.93C1211.31 108.736 1209.65 106.957 1207.6 106.957H1204.12C1203.92 105.849 1203.61 104.835 1203.23 103.911H1207.6C1209.65 103.911 1211.31 102.132 1211.31 99.9377C1211.31 97.7433 1209.65 95.9645 1207.6 95.9645H1193.85C1193.79 95.9632 1193.74 95.9632 1193.69 95.9645H1183.4C1181.35 95.9645 1179.69 97.7433 1179.69 99.9377C1179.69 102.132 1181.35 103.911 1183.4 103.911Z" fill="#0C098C"/>
</g>
<g clip-path="url(#clip4_94_393)">
<path d="M1317.5 84.084C1339.38 84.084 1357.12 66.1408 1357.12 44.0063C1357.12 21.872 1339.38 3.92857 1317.5 3.92857C1295.62 3.92857 1277.88 21.872 1277.88 44.0063C1277.88 66.1408 1295.62 84.084 1317.5 84.084Z" fill="#7AF1FF"/>
<path fill-rule="evenodd" clip-rule="evenodd" d="M1293.6 17.1305C1299.03 12.1889 1305.96 8.90529 1313.62 8.06816V79.9442C1305.96 79.107 1299.02 75.8214 1293.59 70.8765C1301.28 64.2123 1305.84 54.2985 1305.84 44.0002C1305.84 33.6965 1301.27 23.7929 1293.6 17.1305ZM1341.41 70.8765C1335.98 75.8214 1329.04 79.107 1321.38 79.9442V8.06816C1329.04 8.90516 1335.97 12.1888 1341.4 17.1303C1333.73 23.7928 1329.16 33.6965 1329.16 44.0002C1329.16 54.2986 1333.72 64.213 1341.41 70.8765ZM1346.59 65.0169C1350.77 59.0958 1353.24 51.8422 1353.24 44.0063C1353.24 36.1674 1350.77 28.9113 1346.58 22.9888C1340.54 28.1672 1336.93 35.9469 1336.93 44.0002C1336.93 52.0499 1340.54 59.839 1346.59 65.0169ZM1298.07 44.0002C1298.07 52.0498 1294.46 59.8389 1288.41 65.0169C1284.23 59.0957 1281.76 51.8421 1281.76 44.0063C1281.76 36.1674 1284.23 28.9114 1288.42 22.9889C1294.46 28.1673 1298.07 35.9471 1298.07 44.0002ZM1273.99 44.0063C1273.99 19.7023 1293.47 0 1317.5 0C1341.53 0 1361.01 19.7023 1361.01 44.0063C1361.01 68.31 1341.53 88.0126 1317.5 88.0126C1293.47 88.0126 1273.99 68.31 1273.99 44.0063Z" fill="#0C098C"/>
</g>
<g clip-path="url(#clip5_94_393)">
<path d="M1042.69 189.21C1042.69 189.21 1047.76 197.867 1063 197.867C1078.23 197.867 1083.34 189.21 1083.34 189.21L1083.34 169.682H1042.65L1042.69 189.21Z" fill="#79EE8D"/>
<path fill-rule="evenodd" clip-rule="evenodd" d="M1064.56 140.497C1063.57 140.07 1062.43 140.07 1061.44 140.497L1021.36 157.664C1019.92 158.28 1018.99 159.68 1018.99 161.228C1018.99 162.776 1019.92 164.177 1021.36 164.792L1025.8 166.692V194.484C1021.85 196.03 1019.07 199.835 1019.07 204.284C1019.07 210.104 1023.84 214.823 1029.73 214.823C1035.61 214.823 1040.39 210.104 1040.39 204.284C1040.39 199.835 1037.6 196.03 1033.65 194.484V170.058L1038.72 172.23L1038.76 189.218C1038.76 189.899 1038.94 190.568 1039.29 191.158L1042.69 189.21C1039.29 191.158 1039.29 191.156 1039.29 191.158L1039.29 191.167L1039.3 191.177L1039.31 191.199L1039.35 191.252C1039.37 191.292 1039.4 191.34 1039.44 191.396C1039.51 191.507 1039.6 191.649 1039.72 191.818C1039.96 192.155 1040.3 192.598 1040.75 193.111C1041.66 194.138 1043.01 195.447 1044.9 196.736C1048.72 199.341 1054.57 201.751 1063 201.751C1071.42 201.751 1077.28 199.341 1081.11 196.739C1083 195.451 1084.36 194.143 1085.27 193.118C1085.72 192.606 1086.06 192.163 1086.3 191.826C1086.42 191.658 1086.52 191.516 1086.59 191.405C1086.62 191.349 1086.66 191.301 1086.68 191.262L1086.71 191.209L1086.73 191.187L1086.73 191.177C1086.73 191.175 1086.74 191.168 1083.34 189.21L1086.74 191.168C1087.09 190.574 1087.27 189.898 1087.27 189.21L1087.27 172.233L1104.64 164.792C1106.08 164.177 1107.01 162.776 1107.01 161.228C1107.01 159.68 1106.08 158.28 1104.64 157.664L1064.56 140.497ZM1079.41 175.598L1079.41 187.932L1079.35 188.008C1078.82 188.606 1077.95 189.462 1076.66 190.339C1074.12 192.064 1069.81 193.983 1063 193.983C1056.19 193.983 1051.89 192.064 1049.36 190.342C1048.08 189.466 1047.21 188.611 1046.68 188.014L1046.61 187.934L1046.59 175.598L1061.44 181.959C1062.43 182.386 1063.57 182.386 1064.56 181.959L1079.41 175.598Z" fill="#0C098C"/>
</g>
<g clip-path="url(#clip6_94_393)">
<path d="M1318 228C1342.85 228 1363 207.853 1363 183C1363 158.147 1342.85 138 1318 138C1293.15 138 1273 158.147 1273 183C1273 207.853 1293.15 228 1318 228Z" fill="#FDDC5C"/>
<path fill-rule="evenodd" clip-rule="evenodd" d="M1320.62 155.598C1315.67 159.23 1311.71 163.976 1309.27 169.339H1327.64C1329.86 169.339 1331.66 171.138 1331.66 173.357C1331.66 175.576 1329.86 177.375 1327.64 177.375H1306.86C1306.58 179.195 1306.48 181.052 1306.56 182.931C1306.56 183.047 1306.56 183.162 1306.56 183.278C1306.48 185.076 1306.58 186.863 1306.84 188.625H1327.64C1329.86 188.625 1331.66 190.424 1331.66 192.643C1331.66 194.862 1329.86 196.661 1327.64 196.661H1309.22C1311.68 202.156 1315.71 207.066 1320.74 210.77C1329.59 217.281 1341.09 219.73 1351.83 215.325C1353.89 214.483 1356.23 215.466 1357.07 217.519C1357.92 219.572 1356.93 221.919 1354.88 222.761C1341.1 228.411 1326.66 225.106 1315.98 217.242C1309 212.112 1303.43 204.898 1300.58 196.661H1282.64C1280.42 196.661 1278.62 194.862 1278.62 192.643C1278.62 190.424 1280.42 188.625 1282.64 188.625H1298.73C1298.53 186.811 1298.45 184.968 1298.52 183.105C1298.45 181.163 1298.53 179.25 1298.75 177.375H1282.64C1280.42 177.375 1278.62 175.576 1278.62 173.357C1278.62 171.138 1280.42 169.339 1282.64 169.339H1300.61C1303.46 161.217 1308.96 154.185 1315.86 149.12C1326.49 141.317 1340.8 137.902 1354.61 142.45C1356.72 143.144 1357.87 145.415 1357.17 147.522C1356.48 149.63 1354.21 150.776 1352.1 150.083C1341.08 146.456 1329.45 149.112 1320.62 155.598Z" fill="#0C098C"/>
</g>
<g clip-path="url(#clip7_94_393)">
<path d="M1082.99 310.173L1069.79 324.25L1047.43 312.902C1043.67 310.996 1039.22 311.544 1035.98 314.313L1030.83 318.698C1029.34 319.974 1029.52 322.456 1031.18 323.469L1056.21 338.714L1046.04 349.562L1038.23 348.283C1033.06 347.435 1028.39 351.7 1028.39 357.279C1028.39 359.503 1029.9 361.402 1031.96 361.768L1044.68 364.027L1046.8 377.581C1047.14 379.775 1048.92 381.384 1051.01 381.384C1056.24 381.384 1060.25 376.412 1059.45 370.898L1058.25 362.58L1068.43 351.732L1082.73 378.412C1083.68 380.185 1086.01 380.378 1087.21 378.783L1091.32 373.302C1093.92 369.841 1094.44 365.101 1092.65 361.099L1082 337.268L1095.21 323.191C1096.74 321.554 1097.61 319.333 1097.61 317.018C1097.61 314.703 1096.74 312.482 1095.21 310.845L1094.58 310.173C1093.04 308.536 1090.96 307.616 1088.79 307.616C1086.61 307.616 1084.53 308.536 1082.99 310.173Z" fill="#7AF1FF"/>
<path fill-rule="evenodd" clip-rule="evenodd" d="M1085.39 312.73C1086.29 311.771 1087.51 311.232 1088.79 311.232C1090.06 311.232 1091.28 311.771 1092.18 312.73L1092.81 313.402C1093.71 314.361 1094.21 315.662 1094.21 317.018C1094.21 318.374 1093.71 319.675 1092.81 320.634L1079.6 334.711C1078.59 335.793 1078.32 337.44 1078.94 338.823L1089.58 362.654C1090.81 365.406 1090.46 368.663 1088.67 371.044L1085.18 375.694L1071.37 349.938C1070.85 348.96 1069.93 348.298 1068.88 348.148C1067.83 347.998 1066.78 348.378 1066.03 349.175L1055.85 360.023C1055.09 360.838 1054.73 361.992 1054.9 363.13L1056.1 371.448C1056.58 374.771 1054.16 377.768 1051.01 377.768C1050.58 377.768 1050.22 377.437 1050.14 376.987L1048.03 363.433C1047.79 361.908 1046.67 360.714 1045.24 360.46L1032.52 358.201C1032.1 358.126 1031.79 357.736 1031.79 357.279C1031.79 353.917 1034.6 351.346 1037.72 351.857L1045.48 353.13C1045.55 353.143 1045.63 353.153 1045.7 353.161C1046.68 353.265 1047.61 352.911 1048.3 352.254C1048.36 352.201 1048.41 352.145 1048.46 352.088L1058.56 341.33C1058.68 341.201 1058.8 341.061 1058.91 340.909C1059.15 340.571 1059.33 340.197 1059.45 339.807C1059.6 339.29 1059.64 338.753 1059.58 338.234C1059.51 337.715 1059.34 337.208 1059.07 336.753C1058.86 336.409 1058.59 336.099 1058.27 335.84C1058.13 335.724 1057.98 335.622 1057.83 335.534L1033.73 320.857L1038.09 317.137C1040.33 315.233 1043.39 314.856 1045.97 316.167L1068.33 327.515C1069.62 328.173 1071.17 327.889 1072.18 326.807L1085.39 312.73ZM1050.67 339.505L1029.5 326.608C1025.76 324.329 1025.35 318.745 1028.71 315.875L1033.86 311.49C1038.12 307.855 1043.96 307.136 1048.88 309.637L1069.08 319.887L1080.59 307.616C1082.77 305.301 1085.71 304 1088.79 304C1091.86 304 1094.8 305.301 1096.98 307.616L1097.61 308.288C1099.78 310.603 1101 313.743 1101 317.018C1101 320.292 1099.78 323.432 1097.61 325.748L1086.09 338.019L1095.71 359.544C1098.06 364.797 1097.38 371.018 1093.97 375.562L1089.86 381.043C1087.17 384.63 1081.93 384.195 1079.79 380.206L1067.69 357.637L1061.86 363.842L1062.8 370.348C1063.92 378.053 1058.32 385 1051.01 385C1047.26 385 1044.07 382.114 1043.45 378.176L1041.73 367.169L1031.4 365.334C1027.71 364.678 1025 361.271 1025 357.279C1025 349.484 1031.52 343.524 1038.75 344.709L1044.85 345.71L1050.67 339.505Z" fill="#0C098C"/>
</g>
<path d="M1228.79 394.429H1161.21C1157.74 394.429 1154.93 397.211 1154.93 400.643V450.357C1154.93 453.789 1157.74 456.571 1161.21 456.571H1228.79C1232.26 456.571 1235.07 453.789 1235.07 450.357V400.643C1235.07 397.211 1232.26 394.429 1228.79 394.429Z" fill="#FF7972"/>
<path fill-rule="evenodd" clip-rule="evenodd" d="M1158.86 400.643C1158.86 399.356 1159.91 398.313 1161.21 398.313H1228.79C1230.09 398.313 1231.14 399.356 1231.14 400.643V450.357C1231.14 451.644 1230.09 452.688 1228.79 452.688H1161.21C1159.91 452.688 1158.86 451.644 1158.86 450.357V400.643ZM1161.21 390.545C1155.57 390.545 1151 395.066 1151 400.643V450.357C1151 455.934 1155.57 460.455 1161.21 460.455H1228.79C1234.43 460.455 1239 455.934 1239 450.357V400.643C1239 395.066 1234.43 390.545 1228.79 390.545H1161.21ZM1207.57 425.5C1207.57 432.364 1201.94 437.929 1195 437.929C1188.06 437.929 1182.43 432.364 1182.43 425.5C1182.43 418.636 1188.06 413.071 1195 413.071C1201.94 413.071 1207.57 418.636 1207.57 425.5ZM1170.01 431.714C1166.54 431.714 1163.73 428.932 1163.73 425.5C1163.73 422.068 1166.54 419.286 1170.01 419.286C1173.49 419.286 1176.3 422.068 1176.3 425.5C1176.3 428.932 1173.49 431.714 1170.01 431.714ZM1219.99 431.714C1216.51 431.714 1213.7 428.932 1213.7 425.5C1213.7 422.068 1216.51 419.286 1219.99 419.286C1223.46 419.286 1226.27 422.068 1226.27 425.5C1226.27 428.932 1223.46 431.714 1219.99 431.714Z" fill="#0C098C"/>
<g clip-path="url(#clip8_94_393)">
<path d="M1087.71 448.866H1034.28C1030.81 448.866 1027.99 451.507 1027.99 454.764V494.575C1027.99 497.833 1030.81 500.473 1034.28 500.473H1087.71C1091.18 500.473 1093.99 497.833 1093.99 494.575V454.764C1093.99 451.507 1091.18 448.866 1087.71 448.866Z" fill="#79EE8D"/>
<path fill-rule="evenodd" clip-rule="evenodd" d="M1034.28 452.661C1032.87 452.661 1031.92 453.705 1031.92 454.764V494.575C1031.92 495.634 1032.87 496.679 1034.28 496.679H1087.71C1089.12 496.679 1090.06 495.634 1090.06 494.575V454.764C1090.06 453.705 1089.12 452.661 1087.71 452.661H1034.28ZM1024.06 454.764C1024.06 449.308 1028.74 445.071 1034.28 445.071H1087.71C1093.24 445.071 1097.92 449.308 1097.92 454.764V494.575C1097.92 500.031 1093.24 504.268 1087.71 504.268H1034.28C1028.74 504.268 1024.06 500.031 1024.06 494.575V454.764ZM1087.71 510.339H1038.38C1039.4 514.743 1043.56 517.929 1048.36 517.929H1101.79C1107.32 517.929 1112 513.692 1112 508.236V468.424C1112 463.787 1108.62 460.031 1104.21 459.008V494.575C1104.21 503.568 1096.52 510.339 1087.71 510.339ZM1036.01 474.67C1036.01 477.604 1038.47 479.982 1041.51 479.982C1044.54 479.982 1047.01 477.604 1047.01 474.67C1047.01 471.736 1044.54 469.357 1041.51 469.357C1038.47 469.357 1036.01 471.736 1036.01 474.67ZM1074.98 474.67C1074.98 477.604 1077.44 479.982 1080.48 479.982C1083.52 479.982 1085.98 477.604 1085.98 474.67C1085.98 471.736 1083.52 469.357 1080.48 469.357C1077.44 469.357 1074.98 471.736 1074.98 474.67ZM1060.99 465.563C1055.78 465.563 1051.56 469.64 1051.56 474.67C1051.56 479.699 1055.78 483.777 1060.99 483.777C1066.2 483.777 1070.42 479.699 1070.42 474.67C1070.42 469.64 1066.2 465.563 1060.99 465.563Z" fill="#0C098C"/>
</g>
<path d="M1222.46 227.839H1166.54C1163.1 227.839 1160.32 230.59 1160.32 233.982V300.018C1160.32 303.411 1163.1 306.161 1166.54 306.161H1222.46C1225.9 306.161 1228.68 303.411 1228.68 300.018V233.982C1228.68 230.59 1225.9 227.839 1222.46 227.839Z" fill="#FF7972"/>
<path fill-rule="evenodd" clip-rule="evenodd" d="M1164.21 233.982C1164.21 232.71 1165.25 231.679 1166.54 231.679H1190.62V302.321H1166.54C1165.25 302.321 1164.21 301.29 1164.21 300.018V233.982ZM1198.38 302.321V231.679H1222.46C1223.75 231.679 1224.79 232.71 1224.79 233.982V300.018C1224.79 301.29 1223.75 302.321 1222.46 302.321H1198.38ZM1166.54 310C1160.96 310 1156.44 305.531 1156.44 300.018V233.982C1156.44 228.469 1160.96 224 1166.54 224H1222.46C1228.04 224 1232.56 228.469 1232.56 233.982V300.018C1232.56 305.531 1228.04 310 1222.46 310H1166.54ZM1210.04 259.321C1212.61 259.321 1214.7 261.384 1214.7 263.929V270.071C1214.7 272.616 1212.61 274.679 1210.04 274.679C1207.46 274.679 1205.38 272.616 1205.38 270.071V263.929C1205.38 261.384 1207.46 259.321 1210.04 259.321ZM1183.62 263.929C1183.62 261.384 1181.54 259.321 1178.96 259.321C1176.39 259.321 1174.3 261.384 1174.3 263.929V270.071C1174.3 272.616 1176.39 274.679 1178.96 274.679C1181.54 274.679 1183.62 272.616 1183.62 270.071V263.929Z" fill="#0C098C"/>
<path fill-rule="evenodd" clip-rule="evenodd" d="M1282.6 477.137H1350.4C1353.62 477.137 1354.99 473.835 1352.47 472.265L1318.57 451.316C1317.94 450.969 1317.23 450.786 1316.5 450.786C1315.78 450.786 1315.06 450.969 1314.44 451.316L1280.54 472.265C1278.01 473.835 1279.39 477.137 1282.6 477.137ZM1282.08 506.51H1350.92C1352.5 506.51 1353.79 507.737 1353.79 509.251V517.473C1353.79 518.987 1352.5 520.214 1350.92 520.214H1282.08C1280.5 520.214 1279.21 518.987 1279.21 517.473V509.251C1279.21 507.737 1280.5 506.51 1282.08 506.51Z" fill="#FDDC5C"/>
<path fill-rule="evenodd" clip-rule="evenodd" d="M1285.53 473.521L1316.45 454.41C1316.47 454.404 1316.49 454.402 1316.5 454.402C1316.52 454.402 1316.53 454.404 1316.55 454.41L1347.48 473.521H1285.53ZM1316.5 447.17C1315.07 447.17 1313.67 447.53 1312.45 448.21C1312.39 448.24 1312.34 448.271 1312.29 448.304L1278.39 469.252L1278.38 469.258C1275.57 471.004 1274.72 474.034 1275.8 476.609C1276.84 479.087 1279.48 480.753 1282.6 480.753H1283.16V502.894H1282.08C1278.26 502.894 1275.33 505.829 1275.33 509.251V517.473C1275.33 520.895 1278.26 523.83 1282.08 523.83H1350.92C1354.74 523.83 1357.67 520.895 1357.67 517.473V509.251C1357.67 505.829 1354.74 502.894 1350.92 502.894H1349.84V480.753H1350.4C1353.52 480.753 1356.16 479.087 1357.2 476.609C1358.29 474.034 1357.43 471.004 1354.63 469.258L1354.62 469.252L1320.71 448.304C1320.66 448.271 1320.61 448.24 1320.56 448.21C1319.33 447.53 1317.93 447.17 1316.5 447.17ZM1338.97 480.753H1331.24V502.894H1338.97V480.753ZM1320.36 480.753H1312.64V502.894H1320.36V480.753ZM1301.76 480.753H1294.03V502.894H1301.76V480.753ZM1283.1 516.598V510.126H1349.9V516.598H1283.1Z" fill="#0C098C"/>
<g clip-path="url(#clip9_94_393)">
<path d="M1318 382.211C1338.23 382.211 1352.68 374.838 1352.68 358.426C1352.68 340.586 1344.01 328.693 1326.67 319.774L1333.49 310.735C1333.84 310.142 1334.03 309.465 1334.04 308.774C1334.05 308.082 1333.88 307.399 1333.55 306.796C1333.22 306.192 1332.74 305.688 1332.16 305.336C1331.59 304.983 1330.93 304.795 1330.25 304.789H1305.75C1305.07 304.795 1304.41 304.983 1303.83 305.336C1303.26 305.688 1302.78 306.192 1302.45 306.796C1302.12 307.399 1301.95 308.082 1301.96 308.774C1301.97 309.465 1302.16 310.142 1302.51 310.735L1309.33 319.833C1291.99 328.812 1283.32 340.705 1283.32 358.544C1283.32 374.838 1297.77 382.211 1318 382.211Z" fill="#7AF1FF"/>
<path fill-rule="evenodd" clip-rule="evenodd" d="M1305.75 300.994L1305.71 300.994C1304.26 301.007 1302.86 301.415 1301.66 302.147C1300.46 302.876 1299.51 303.892 1298.88 305.061C1298.24 306.228 1297.93 307.526 1297.95 308.827C1297.97 310.128 1298.32 311.418 1298.99 312.569C1299.06 312.693 1299.14 312.813 1299.23 312.928L1303.52 318.645C1296.29 322.885 1290.54 327.838 1286.45 333.804C1281.63 340.837 1279.3 349.012 1279.3 358.545C1279.3 367.935 1283.56 375.045 1290.84 379.642C1297.89 384.1 1307.46 386.006 1318 386.006C1328.54 386.006 1338.11 384.1 1345.17 379.623C1352.45 375.006 1356.7 367.865 1356.7 358.426C1356.7 348.893 1354.37 340.717 1349.55 333.691C1345.47 327.736 1339.72 322.8 1332.5 318.584L1336.76 312.938C1336.85 312.819 1336.93 312.696 1337.01 312.569C1337.68 311.418 1338.03 310.128 1338.05 308.827C1338.07 307.526 1337.76 306.228 1337.12 305.061C1336.49 303.892 1335.54 302.876 1334.34 302.147C1333.14 301.415 1331.74 301.007 1330.29 300.994L1330.25 300.994H1305.75ZM1312.61 317.641L1305.99 308.817C1305.99 308.789 1305.98 308.756 1305.98 308.72C1305.98 308.667 1305.99 308.621 1306 308.584H1330C1330.01 308.621 1330.02 308.667 1330.02 308.72C1330.02 308.755 1330.01 308.787 1330.01 308.814L1323.4 317.571C1322.73 318.456 1322.5 319.568 1322.76 320.626C1323.01 321.684 1323.74 322.587 1324.75 323.106C1333.02 327.359 1338.94 332.176 1342.81 337.819C1346.66 343.429 1348.66 350.119 1348.66 358.426C1348.66 365.398 1345.69 370.15 1340.69 373.323C1335.46 376.635 1327.69 378.417 1318 378.417C1308.31 378.417 1300.53 376.636 1295.31 373.334C1290.3 370.171 1287.34 365.448 1287.34 358.545C1287.34 350.238 1289.34 343.547 1293.19 337.928C1297.07 332.276 1302.99 327.444 1311.26 323.161C1312.27 322.641 1312.99 321.74 1313.24 320.686C1313.5 319.632 1313.27 318.524 1312.61 317.641ZM1322.02 330.598V333.505C1324.58 333.881 1326.86 335.097 1328.51 336.838C1329.45 337.833 1330.19 339.004 1330.68 340.296C1331.42 342.272 1330.32 344.44 1328.23 345.139C1326.14 345.837 1323.84 344.801 1323.1 342.826C1322.97 342.484 1322.77 342.169 1322.52 341.899C1321.97 341.324 1321.19 340.971 1320.32 340.971H1314.93C1313.72 340.971 1312.73 341.9 1312.73 343.047C1312.73 344.023 1313.45 344.867 1314.46 345.076L1322.67 346.771C1327.71 347.813 1331.3 352.033 1331.3 356.906C1331.3 362.088 1327.28 366.386 1322.02 367.157V370.063C1322.02 372.159 1320.22 373.858 1318 373.858C1315.78 373.858 1313.98 372.159 1313.98 370.063V367.157C1309.95 366.567 1306.65 363.904 1305.32 360.365C1304.58 358.389 1305.68 356.221 1307.77 355.523C1309.86 354.825 1312.16 355.86 1312.9 357.836C1313.3 358.922 1314.4 359.691 1315.68 359.691H1320.32C1321.95 359.691 1323.27 358.445 1323.27 356.906C1323.27 355.597 1322.3 354.465 1320.95 354.185L1312.74 352.49C1308.05 351.519 1304.7 347.59 1304.7 343.047C1304.7 338.011 1308.77 333.874 1313.98 333.422V330.598C1313.98 328.503 1315.78 326.804 1318 326.804C1320.22 326.804 1322.02 328.503 1322.02 330.598Z" fill="#0C098C"/>
</g>
<g clip-path="url(#clip10_94_393)">
<path d="M45 107C69.8529 107 90 85.9574 90 60C90 34.0426 69.8529 13 45 13C20.1472 13 4.28044e-07 34.0426 4.28044e-07 60C4.28044e-07 85.9574 20.1472 107 45 107Z" fill="#79EE8D"/>
<path fill-rule="evenodd" clip-rule="evenodd" d="M7.30935 21.8629C6.03648 19.9645 3.53114 19.5032 1.7135 20.8327C-0.104139 22.1621 -0.545778 24.7788 0.727072 26.6772L26.622 65.2988C27.2335 66.2108 28.1668 66.8316 29.2166 67.0246C30.2665 67.2176 31.3467 66.9669 32.2195 66.3279L48.9244 54.0965L67.2191 81.3823L56.6 89.5637C55.5697 90.3573 55.0886 91.7143 55.3755 93.0175C55.6622 94.3207 56.6623 95.3218 57.921 95.5662L81.9604 100.229C82.8084 100.394 83.6839 100.196 84.3904 99.6794C85.0969 99.1631 85.5752 98.3715 85.7173 97.4832L89.9563 71.0342C90.1723 69.6854 89.5834 68.3344 88.4674 67.6189C87.3514 66.9034 85.932 66.9665 84.8777 67.7783L73.6881 76.3991L53.2008 45.843C52.5893 44.9311 51.6559 44.3103 50.6062 44.1172C49.5563 43.9243 48.4761 44.1749 47.6032 44.814L30.8984 57.0454L7.30935 21.8629Z" fill="#0C098C"/>
</g>
<g clip-path="url(#clip11_94_393)">
<path d="M278.277 74.9707L273.953 33.9821H335.07C339.448 33.9821 342.661 38.0872 341.599 42.3249L333.186 75.8963C332.437 78.8853 329.745 80.9821 326.657 80.9821H284.97C281.526 80.9821 278.638 78.3879 278.277 74.9707Z" fill="#7AF1FF"/>
<path fill-rule="evenodd" clip-rule="evenodd" d="M256.196 13C253.879 13 252 14.8788 252 17.1964C252 19.5141 253.879 21.3929 256.196 21.3929H268.405L274.105 75.411C274.691 80.9714 279.387 85.1786 284.971 85.1786H326.658C331.665 85.1786 336.039 81.7785 337.257 76.9163L345.67 43.3449C347.399 36.4457 342.167 29.7857 335.07 29.7857H277.73L276.355 16.7561C276.13 14.6208 274.329 13 272.182 13H256.196ZM282.451 74.5305L278.616 38.1786H335.07C336.73 38.1786 337.923 39.7287 337.529 41.3049L329.116 74.8763C328.837 75.9924 327.827 76.7857 326.658 76.7857H284.971C283.666 76.7857 282.585 75.8046 282.451 74.5305ZM296.344 52.4464C293.563 52.4464 291.309 54.701 291.309 57.4821C291.309 60.2633 293.563 62.5179 296.344 62.5179H316.487C319.268 62.5179 321.523 60.2633 321.523 57.4821C321.523 54.701 319.268 52.4464 316.487 52.4464H296.344ZM333.048 99.4464C333.048 95.2748 329.667 91.8929 325.495 91.8929C321.323 91.8929 317.941 95.2748 317.941 99.4464C317.941 103.618 321.323 107 325.495 107C329.667 107 333.048 103.618 333.048 99.4464ZM281.852 91.8929C286.024 91.8929 289.406 95.2748 289.406 99.4464C289.406 103.618 286.024 107 281.852 107C277.68 107 274.298 103.618 274.298 99.4464C274.298 95.2748 277.68 91.8929 281.852 91.8929Z" fill="#0C098C"/>
</g>
<g clip-path="url(#clip12_94_393)">
<path fill-rule="evenodd" clip-rule="evenodd" d="M319.239 174.286V223.804H346.893V174.286H319.239ZM263.108 199.464V223.804H290.762V199.464H263.108Z" fill="#FDDC5C"/>
<path fill-rule="evenodd" clip-rule="evenodd" d="M259.219 176.876C259.949 179.07 262.282 180.245 264.429 179.499L333.452 155.541L336.397 164.286C336.83 165.572 337.98 166.464 339.309 166.545C340.639 166.625 341.884 165.878 342.463 164.653L350.674 147.282C351.46 145.619 350.784 143.62 349.16 142.808L332.249 134.342C331.054 133.745 329.625 133.941 328.628 134.841C327.632 135.74 327.264 137.165 327.696 138.449L330.78 147.604L261.787 171.552C259.639 172.298 258.49 174.681 259.219 176.876ZM346.894 227.999C349.162 227.999 351.001 226.12 351.001 223.803V174.285C351.001 171.967 349.162 170.088 346.894 170.088H319.239C316.971 170.088 315.132 171.967 315.132 174.285V185.196H290.763C288.495 185.196 286.656 187.074 286.656 189.392V195.267H263.109C260.84 195.267 259.002 197.146 259.002 199.463V223.803C259.002 226.12 260.84 227.999 263.109 227.999H346.894ZM286.656 203.66V219.606H267.216V203.66H286.656ZM342.787 219.606V178.481H323.347V219.606H342.787Z" fill="#0C098C"/>
</g>
<g clip-path="url(#clip13_94_393)">
<path fill-rule="evenodd" clip-rule="evenodd" d="M35.7973 177.857V226.848H7.24107V177.857H35.7973ZM93.7583 202.768V226.848H65.2021V202.768H93.7583Z" fill="#79EE8D"/>
<path fill-rule="evenodd" clip-rule="evenodd" d="M3.22656 140.817C3.98001 138.646 6.38867 137.484 8.60646 138.222L79.8799 161.926L82.9206 153.273C83.3684 152.001 84.5559 151.118 85.928 151.038C87.3008 150.959 88.5867 151.698 89.1845 152.91L97.6632 170.096C98.4748 171.741 97.7766 173.719 96.1005 174.523L78.6374 182.898C77.4038 183.49 75.9279 183.295 74.8985 182.405C73.8698 181.515 73.4898 180.106 73.9363 178.835L77.1202 169.777L5.87799 146.084C3.6602 145.346 2.47312 142.988 3.22656 140.817ZM40.0396 177.858V188.653H65.2035C67.5458 188.653 69.4446 190.512 69.4446 192.805V198.617H93.7594C96.1018 198.617 98.0005 200.476 98.0005 202.769V226.849C98.0005 229.142 96.1018 231.001 93.7594 231.001H7.24222C4.89995 231.001 3.00115 229.142 3.00115 226.849V177.858C3.00115 175.565 4.89995 173.706 7.24222 173.706H35.7985C38.1408 173.706 40.0396 175.565 40.0396 177.858ZM69.4446 222.698H89.5183V206.921H69.4446V222.698ZM11.4833 222.698V182.01H31.5574V222.698H11.4833Z" fill="#0C098C"/>
</g>
<g clip-path="url(#clip14_94_393)">
<path fill-rule="evenodd" clip-rule="evenodd" d="M197.616 82.5893C197.616 79.3791 194.902 76.7768 191.554 76.7768C188.206 76.7768 185.491 79.3791 185.491 82.5893V95.875C185.491 99.0852 188.206 101.688 191.554 101.688C194.902 101.688 197.616 99.0852 197.616 95.875V82.5893ZM154.133 149.848H198.771C201.96 149.848 204.545 147.37 204.545 144.313C204.545 138.198 199.375 133.241 192.997 133.241H161.966C162.967 132.902 163.905 132.348 164.706 131.581C167.576 128.83 167.576 124.368 164.706 121.617L156.639 113.883C154.041 111.392 150.516 109.992 146.841 109.992H124.002L124.003 133.104L145.262 146.769C147.752 148.759 150.892 149.848 154.133 149.848Z" fill="#FDDC5C"/>
<path fill-rule="evenodd" clip-rule="evenodd" d="M162.107 89.2321C162.107 73.64 175.291 61 191.554 61C207.816 61 221 73.64 221 89.2321C221 104.824 207.816 117.464 191.554 117.464C175.291 117.464 162.107 104.824 162.107 89.2321ZM197.616 82.5893C197.616 79.3791 194.902 76.7768 191.554 76.7768C188.206 76.7768 185.491 79.3791 185.491 82.5893V95.875C185.491 99.0852 188.206 101.688 191.554 101.688C194.902 101.688 197.616 99.0852 197.616 95.875V82.5893ZM125.004 130.583C126.535 128.822 129.265 128.584 131.103 130.052L148.034 143.579C149.746 144.947 151.905 145.696 154.133 145.696H198.771C199.568 145.696 200.214 145.077 200.214 144.313C200.214 140.491 196.983 137.393 192.997 137.393H162.622C158.702 138.428 154.33 137.469 151.251 134.516L146.054 129.534C144.363 127.913 144.363 125.284 146.054 123.662C147.745 122.041 150.487 122.041 152.178 123.662L157.375 128.645C158.219 129.454 159.438 129.684 160.495 129.334C160.511 129.329 160.526 129.324 160.542 129.318C160.944 129.178 161.321 128.954 161.643 128.645C162.822 127.514 162.822 125.682 161.643 124.552L153.577 116.818C151.79 115.105 149.367 114.143 146.841 114.143H128.33C125.939 114.143 124.002 112.285 124.002 109.992C124.002 107.699 125.939 105.839 128.33 105.839H146.841C151.664 105.839 156.29 107.676 159.701 110.947L167.767 118.68C170.713 121.505 171.756 125.462 170.897 129.089H192.997C201.766 129.089 208.875 135.905 208.875 144.313C208.875 149.663 204.351 154 198.771 154H154.133C149.878 154 145.758 152.57 142.49 149.958L125.558 136.43C123.721 134.963 123.473 132.345 125.004 130.583Z" fill="#0C098C"/>
</g>
<path d="M269.143 347.286V363.714H334.857V347.286C334.857 329.139 320.146 314.429 302 314.429C283.853 314.429 269.143 329.139 269.143 347.286Z" fill="#FF7972"/>
<path fill-rule="evenodd" clip-rule="evenodd" d="M306.107 304.571C306.107 302.303 304.268 300.464 302 300.464C299.732 300.464 297.893 302.303 297.893 304.571V310.547C279.411 312.59 265.036 328.259 265.036 347.286V361.322C261.642 362.88 259.286 366.307 259.286 370.286V376.857C259.286 382.301 263.699 386.714 269.143 386.714H334.857C340.301 386.714 344.714 382.301 344.714 376.857V370.286C344.714 366.307 342.358 362.88 338.964 361.322V347.286C338.964 328.259 324.589 312.59 306.107 310.547V304.571ZM302 318.536C286.122 318.536 273.25 331.408 273.25 347.286V360.429H330.75V347.286C330.75 331.408 317.878 318.536 302 318.536Z" fill="#0C098C"/>
<path d="M22.0714 307.071H76.1071C73.5783 307.071 71.1524 308.031 69.3641 309.739C67.5758 311.447 66.5714 313.763 66.5714 316.179V379.929L52.2678 370.821L37.9643 379.929L23.6607 370.821L9.35713 379.929V319.214C9.35713 315.994 10.6966 312.905 13.0811 310.628C15.4655 308.351 18.6994 307.071 22.0714 307.071Z" fill="#79EE8D"/>
<path fill-rule="evenodd" clip-rule="evenodd" d="M10.2715 307.945C13.4011 304.956 17.6456 303.277 22.0714 303.277H76.1071C79.69 303.277 83.126 304.636 85.6594 307.056C88.1927 309.475 89.6161 312.757 89.6161 316.179V331.357C89.6161 333.453 87.8373 335.152 85.6428 335.152H70.5446V379.929C70.5446 381.328 69.7379 382.614 68.4461 383.274C67.1544 383.935 65.5867 383.862 64.3675 383.086L52.2678 375.382L40.1682 383.086C38.8336 383.936 37.0949 383.936 35.7603 383.086L23.6607 375.382L11.5611 383.086C10.3418 383.862 8.77425 383.935 7.48233 383.274C6.19041 382.614 5.38391 381.328 5.38391 379.929V319.214C5.38391 314.987 7.14206 310.934 10.2715 307.945ZM22.0714 310.866H63.7966C63.0141 312.52 62.5982 314.329 62.5982 316.179V372.838L54.4718 367.664C53.1372 366.814 51.3985 366.814 50.0639 367.664L37.9643 375.368L25.8647 367.664C24.53 366.814 22.7914 366.814 21.4567 367.664L13.3303 372.838V319.214C13.3303 317 14.2513 314.877 15.8906 313.311C17.5298 311.746 19.7532 310.866 22.0714 310.866ZM55.856 334.789C57.59 332.897 57.3892 330.02 55.4075 328.364C53.4258 326.708 50.4137 326.9 48.6797 328.792L32.5199 346.43L26.5214 342.134C24.4148 340.625 21.4264 341.033 19.8464 343.045C18.2665 345.056 18.6934 347.911 20.8 349.42L30.3357 356.25C32.3309 357.679 35.1423 357.398 36.7846 355.606L55.856 334.789Z" fill="#0C098C"/>
<path fill-rule="evenodd" clip-rule="evenodd" d="M142.143 227.277C139.526 227.277 137.017 228.316 135.167 230.166C133.316 232.017 132.277 234.526 132.277 237.143V297.857C132.277 300.474 133.316 302.983 135.167 304.833C137.017 306.684 139.526 307.723 142.143 307.723H202.857C205.474 307.723 207.983 306.684 209.833 304.833C211.684 302.983 212.723 300.474 212.723 297.857V237.143C212.723 234.526 211.684 232.017 209.833 230.166C207.983 228.316 205.474 227.277 202.857 227.277H142.143Z" fill="#FDDC5C"/>
<path fill-rule="evenodd" clip-rule="evenodd" d="M140.533 235.533C140.96 235.106 141.539 234.866 142.143 234.866H154.286C156.382 234.866 158.08 233.167 158.08 231.071C158.08 228.976 156.382 227.277 154.286 227.277H142.143C139.526 227.277 137.017 228.316 135.167 230.166C133.316 232.017 132.277 234.526 132.277 237.143V249.286C132.277 251.381 133.976 253.08 136.071 253.08C138.167 253.08 139.866 251.381 139.866 249.286V237.143C139.866 236.539 140.106 235.96 140.533 235.533ZM186.92 231.071C186.92 228.976 188.619 227.277 190.714 227.277H202.857C205.474 227.277 207.983 228.316 209.833 230.166C211.684 232.017 212.723 234.526 212.723 237.143V249.286C212.723 251.381 211.024 253.08 208.929 253.08C206.833 253.08 205.134 251.381 205.134 249.286V237.143C205.134 236.539 204.894 235.96 204.467 235.533C204.04 235.106 203.461 234.866 202.857 234.866H190.714C188.619 234.866 186.92 233.167 186.92 231.071ZM172.5 238.149C175.015 238.149 177.054 240.188 177.054 242.703V246.381C180.049 246.822 182.704 248.314 184.625 250.461C185.711 251.674 186.569 253.103 187.126 254.678C187.964 257.05 186.721 259.651 184.35 260.489C181.979 261.327 179.378 260.085 178.539 257.713C178.386 257.278 178.147 256.878 177.839 256.534C177.184 255.803 176.247 255.353 175.198 255.353H168.932C167.456 255.353 166.26 256.549 166.26 258.025C166.26 259.281 167.134 260.368 168.361 260.636L177.901 262.723C183.71 263.993 187.847 269.139 187.847 275.082C187.847 281.436 183.161 286.7 177.054 287.598V291.275C177.054 293.79 175.015 295.829 172.5 295.829C169.985 295.829 167.946 293.79 167.946 291.275V287.599C163.256 286.91 159.409 283.647 157.873 279.301C157.035 276.93 158.278 274.328 160.649 273.49C163.02 272.652 165.622 273.895 166.46 276.266C166.948 277.647 168.266 278.626 169.801 278.626H172.432L172.5 278.626L172.568 278.626H175.198C177.152 278.626 178.74 277.04 178.74 275.082C178.74 273.416 177.579 271.975 175.955 271.62L166.415 269.533C161.007 268.35 157.153 263.561 157.153 258.025C157.153 251.851 161.902 246.787 167.946 246.286V242.703C167.946 240.188 169.985 238.149 172.5 238.149ZM208.929 281.92C211.024 281.92 212.723 283.619 212.723 285.714V297.857C212.723 300.474 211.684 302.983 209.833 304.833C207.983 306.684 205.474 307.723 202.857 307.723H190.714C188.619 307.723 186.92 306.024 186.92 303.929C186.92 301.833 188.619 300.134 190.714 300.134H202.857C203.461 300.134 204.04 299.894 204.467 299.467C204.894 299.04 205.134 298.461 205.134 297.857V285.714C205.134 283.619 206.833 281.92 208.929 281.92ZM139.866 285.714C139.866 283.619 138.167 281.92 136.071 281.92C133.976 281.92 132.277 283.619 132.277 285.714V297.857C132.277 300.474 133.316 302.983 135.167 304.833C137.017 306.684 139.526 307.723 142.143 307.723H154.286C156.382 307.723 158.08 306.024 158.08 303.929C158.08 301.833 156.382 300.134 154.286 300.134H142.143C141.539 300.134 140.96 299.894 140.533 299.467C140.106 299.04 139.866 298.461 139.866 297.857V285.714Z" fill="#0C098C"/>
<path d="M332.286 514.036H268.714C265.203 514.036 262.357 511.189 262.357 507.679V472.714C262.357 469.203 265.203 466.357 268.714 466.357H332.286C335.797 466.357 338.643 469.203 338.643 472.714V507.679C338.643 511.189 335.797 514.036 332.286 514.036Z" fill="#79EE8D"/>
<path fill-rule="evenodd" clip-rule="evenodd" d="M268.714 510.063C267.398 510.063 266.33 508.995 266.33 507.679V472.714C266.33 471.398 267.398 470.33 268.714 470.33H332.286C333.602 470.33 334.67 471.398 334.67 472.714V507.679C334.67 508.995 333.602 510.063 332.286 510.063H268.714ZM258.384 507.679C258.384 513.384 263.009 518.009 268.714 518.009H332.286C337.991 518.009 342.616 513.384 342.616 507.679V472.714C342.616 467.009 337.991 462.384 332.286 462.384H268.714C263.009 462.384 258.384 467.009 258.384 472.714V507.679ZM300.5 502.911C293.478 502.911 287.786 497.218 287.786 490.196C287.786 483.175 293.478 477.482 300.5 477.482C307.522 477.482 313.214 483.175 313.214 490.196C313.214 497.218 307.522 502.911 300.5 502.911ZM271.098 490.196C271.098 493.269 273.589 495.759 276.661 495.759C279.733 495.759 282.223 493.269 282.223 490.196C282.223 487.124 279.733 484.634 276.661 484.634C273.589 484.634 271.098 487.124 271.098 490.196ZM318.777 490.196C318.777 493.269 321.268 495.759 324.339 495.759C327.411 495.759 329.902 493.269 329.902 490.196C329.902 487.124 327.411 484.634 324.339 484.634C321.268 484.634 318.777 487.124 318.777 490.196ZM304.473 544.232C304.473 546.427 302.694 548.205 300.5 548.205C298.306 548.205 296.527 546.427 296.527 544.232V531.518C296.527 529.323 298.306 527.545 300.5 527.545C302.694 527.545 304.473 529.323 304.473 531.518V544.232ZM316.393 542.643C318.587 542.643 320.366 540.864 320.366 538.67V525.955C320.366 523.761 318.587 521.982 316.393 521.982C314.199 521.982 312.42 523.761 312.42 525.955V538.67C312.42 540.864 314.199 542.643 316.393 542.643ZM288.58 538.67C288.58 540.864 286.802 542.643 284.607 542.643C282.413 542.643 280.634 540.864 280.634 538.67V525.955C280.634 523.761 282.413 521.982 284.607 521.982C286.802 521.982 288.58 523.761 288.58 525.955V538.67Z" fill="#0C098C"/>
<path d="M22.0714 466.071H76.1071C73.5783 466.071 71.1524 467.031 69.3641 468.739C67.5758 470.447 66.5714 472.763 66.5714 475.179V538.929L52.2678 529.821L37.9643 538.929L23.6607 529.821L9.35713 538.929V478.214C9.35713 474.994 10.6966 471.905 13.0811 469.628C15.4655 467.351 18.6994 466.071 22.0714 466.071Z" fill="#FF7972"/>
<path fill-rule="evenodd" clip-rule="evenodd" d="M22.0714 462.277C17.6456 462.277 13.4011 463.956 10.2715 466.945C7.14206 469.934 5.38391 473.987 5.38391 478.214V538.929C5.38391 540.328 6.19041 541.614 7.48233 542.274C8.77425 542.935 10.3418 542.862 11.5611 542.086L23.6607 534.382L35.7603 542.086C37.0949 542.936 38.8336 542.936 40.1682 542.086L52.2678 534.382L64.3675 542.086C65.5867 542.862 67.1544 542.935 68.4461 542.274C69.7379 541.614 70.5446 540.328 70.5446 538.929V494.152H85.6428C87.8373 494.152 89.6161 492.453 89.6161 490.357V475.179C89.6161 471.757 88.1927 468.475 85.6594 466.056C83.126 463.636 79.69 462.277 76.1071 462.277H22.0714ZM63.7966 469.866H22.0714C19.7532 469.866 17.5298 470.746 15.8906 472.311C14.2513 473.877 13.3303 476 13.3303 478.214V531.838L21.4567 526.664C22.7914 525.814 24.53 525.814 25.8647 526.664L37.9643 534.368L50.0639 526.664C51.3985 525.814 53.1372 525.814 54.4718 526.664L62.5982 531.838V475.179C62.5982 473.329 63.0141 471.52 63.7966 469.866ZM18.8928 499.464C18.8928 496.949 21.0275 494.911 23.6607 494.911H33.1964V485.804C33.1964 483.289 35.3311 481.25 37.9643 481.25C40.5975 481.25 42.7321 483.289 42.7321 485.804V494.911H52.2678C54.901 494.911 57.0357 496.949 57.0357 499.464C57.0357 501.979 54.901 504.018 52.2678 504.018H42.7321V513.125C42.7321 515.64 40.5975 517.679 37.9643 517.679C35.3311 517.679 33.1964 515.64 33.1964 513.125V504.018H23.6607C21.0275 504.018 18.8928 501.979 18.8928 499.464Z" fill="#0C098C"/>
<g clip-path="url(#clip15_94_393)">
<path d="M265.807 645.714H332.192C333.07 645.695 333.94 645.884 334.738 646.267C335.537 646.649 336.243 647.215 336.805 647.923C337.367 648.631 337.77 649.463 337.984 650.356C338.198 651.25 338.218 652.183 338.042 653.085L331.607 686.871C331.334 688.279 330.598 689.543 329.529 690.44C328.461 691.339 327.126 691.815 325.757 691.786H272.243C270.874 691.815 269.539 691.339 268.47 690.44C267.401 689.543 266.666 688.279 266.392 686.871L259.957 653.085C259.782 652.183 259.802 651.25 260.016 650.356C260.23 649.463 260.633 648.631 261.195 647.923C261.757 647.215 262.463 646.649 263.261 646.267C264.06 645.884 264.93 645.695 265.807 645.714Z" fill="#7AF1FF"/>
<path fill-rule="evenodd" clip-rule="evenodd" d="M308.155 626.88C306.682 624.303 307.578 621.02 310.155 619.547C312.733 618.074 316.016 618.97 317.489 621.547L329.105 641.875H332.157C333.625 641.851 335.075 642.171 336.397 642.804C337.732 643.443 338.896 644.382 339.812 645.536C340.728 646.69 341.375 648.033 341.718 649.461C342.059 650.887 342.092 652.372 341.813 653.81L341.811 653.819L335.379 687.59L335.376 687.603C334.94 689.848 333.761 691.9 331.999 693.38C330.244 694.855 328.025 695.662 325.722 695.625H272.278C269.975 695.662 267.755 694.855 266.001 693.38C264.239 691.9 263.06 689.848 262.624 687.603L256.189 653.819L256.187 653.811C255.908 652.372 255.941 650.887 256.282 649.461C256.625 648.033 257.272 646.69 258.187 645.536C259.104 644.382 260.268 643.443 261.603 642.804C262.925 642.171 264.374 641.851 265.843 641.875H268.895L280.511 621.547C281.984 618.97 285.267 618.074 287.845 619.547C290.422 621.02 291.318 624.303 289.845 626.88L281.277 641.875H316.723L308.155 626.88ZM332.274 649.552C332.544 649.547 332.819 649.604 333.08 649.729C333.342 649.855 333.59 650.048 333.798 650.31C334.006 650.572 334.164 650.892 334.25 651.251C334.336 651.61 334.345 651.988 334.274 652.352L334.271 652.367L327.838 686.139C327.727 686.708 327.435 687.186 327.06 687.501C326.689 687.813 326.256 687.956 325.838 687.947L325.757 687.945L272.161 687.946C271.744 687.955 271.311 687.813 270.94 687.501C270.565 687.186 270.274 686.714 270.162 686.144L263.729 652.367L263.726 652.352C263.655 651.988 263.663 651.61 263.749 651.251C263.835 650.892 263.994 650.572 264.202 650.31C264.409 650.048 264.658 649.855 264.92 649.729C265.181 649.604 265.455 649.547 265.726 649.552L265.807 649.554L332.192 649.553L332.274 649.552Z" fill="#0C098C"/>
</g>
<path d="M206.571 589.831C206.571 579.55 202.508 569.689 195.274 562.419C188.04 555.149 178.23 551.065 168 551.065C157.77 551.065 147.959 555.149 140.726 562.419C133.492 569.689 129.428 579.55 129.428 589.831C129.428 592.204 130.366 594.479 132.036 596.156C133.705 597.834 135.969 598.777 138.33 598.777H197.67C200.031 598.777 202.295 597.834 203.965 596.156C205.633 594.479 206.571 592.204 206.571 589.831Z" fill="#79EE8D"/>
<path fill-rule="evenodd" clip-rule="evenodd" d="M155.657 515.205C158.764 515.205 161.282 517.724 161.282 520.83C161.282 522.612 161.99 524.321 163.25 525.581C164.509 526.84 166.218 527.548 168 527.548C169.782 527.548 171.49 526.84 172.75 525.581C174.01 524.321 174.718 522.612 174.718 520.83C174.718 517.724 177.236 515.205 180.343 515.205C183.449 515.205 185.968 517.724 185.968 520.83C185.968 523.965 185.149 527.015 183.629 529.694C193.742 532.456 203.058 537.875 210.581 545.521C212.759 547.735 212.731 551.297 210.517 553.475C208.302 555.654 204.74 555.625 202.562 553.411C193.375 544.074 180.942 538.847 168 538.847C155.058 538.847 142.625 544.074 133.438 553.411C131.259 555.625 127.698 555.654 125.483 553.475C123.269 551.297 123.24 547.735 125.419 545.521C132.942 537.875 142.257 532.456 152.37 529.694C150.851 527.015 150.032 523.965 150.032 520.83C150.032 517.724 152.55 515.205 155.657 515.205ZM137.878 559.585C145.863 551.559 156.698 547.047 168 547.047C179.302 547.047 190.137 551.559 198.122 559.585C206.107 567.61 210.589 578.49 210.589 589.831C210.589 593.262 209.233 596.558 206.812 598.99C204.391 601.424 201.103 602.795 197.67 602.795H138.33C134.897 602.795 131.609 601.424 129.187 598.99C126.767 596.558 125.411 593.262 125.411 589.831C125.411 578.49 129.893 567.61 137.878 559.585ZM168 555.083C158.842 555.083 150.056 558.739 143.574 565.253C137.092 571.768 133.446 580.608 133.446 589.831C133.446 591.144 133.966 592.4 134.884 593.323C135.801 594.245 137.041 594.759 138.33 594.759H197.67C198.959 594.759 200.199 594.245 201.116 593.323C202.034 592.4 202.553 591.144 202.553 589.831C202.553 580.608 198.908 571.768 192.426 565.253C185.944 558.739 177.158 555.083 168 555.083Z" fill="#0C098C"/>
<g clip-path="url(#clip16_94_393)">
<path d="M173 438.95C195.638 438.95 213.989 420.396 213.989 397.506C213.989 374.618 195.638 356.062 173 356.062C150.363 356.062 132.012 374.618 132.012 397.506C132.012 420.396 150.363 438.95 173 438.95Z" fill="#7AF1FF"/>
<path fill-rule="evenodd" clip-rule="evenodd" d="M136.029 397.506C136.029 376.861 152.582 360.125 173 360.125C193.418 360.125 209.971 376.861 209.971 397.506C209.971 418.152 193.418 434.888 173 434.888C152.582 434.888 136.029 418.152 136.029 397.506ZM173 352C148.144 352 127.994 372.374 127.994 397.506C127.994 422.639 148.144 443.013 173 443.013C197.857 443.013 218.006 422.639 218.006 397.506C218.006 372.374 197.857 352 173 352ZM189.226 374.746C191.004 376.089 191.368 378.635 190.04 380.432L178.026 396.688H183.864C186.083 396.688 187.882 398.506 187.882 400.75C187.882 402.994 186.083 404.812 183.864 404.812H177.532V408.453H183.864C186.083 408.453 187.882 410.272 187.882 412.515C187.882 414.759 186.083 416.578 183.864 416.578H177.532V418.625C177.532 420.869 175.733 422.688 173.514 422.688C171.295 422.688 169.496 420.869 169.496 418.625V416.578H163.1C160.881 416.578 159.082 414.759 159.082 412.515C159.082 410.272 160.881 408.453 163.1 408.453H169.496V404.812H163.1C160.881 404.812 159.082 402.994 159.082 400.75C159.082 398.506 160.881 396.688 163.1 396.688H168.997L156.93 380.439C155.597 378.645 155.956 376.099 157.73 374.751C159.505 373.404 162.023 373.766 163.356 375.561L173.506 389.229L183.603 375.568C184.931 373.771 187.449 373.403 189.226 374.746Z" fill="#0C098C"/>
</g>
<path d="M75.5714 646.071V686.464C75.5714 688.112 74.9164 689.693 73.7513 690.858C72.5861 692.024 71.0052 692.679 69.3571 692.679H11.0982C9.45006 692.679 7.86946 692.024 6.70405 690.858C5.53865 689.693 4.88393 688.112 4.88393 686.464V642.964C4.88393 632.668 13.2306 624.321 23.5268 624.321H63.1429V639.857H69.3571C71.0052 639.857 72.5861 640.512 73.7513 641.677C74.9164 642.843 75.5714 644.423 75.5714 646.071Z" fill="#7AF1FF"/>
<path fill-rule="evenodd" clip-rule="evenodd" d="M8.76786 642.964C8.76786 634.813 15.3756 628.205 23.5268 628.205H59.2589V635.973H23.5268C21.3817 635.973 19.6429 637.712 19.6429 639.857C19.6429 642.002 21.3817 643.741 23.5268 643.741H69.3571C69.9755 643.741 70.5677 643.987 71.0052 644.424C71.442 644.861 71.6875 645.453 71.6875 646.071V653.839H60.0357C56.6036 653.839 53.8214 656.622 53.8214 660.054V672.482C53.8214 675.914 56.6036 678.696 60.0357 678.696H71.6875V686.464C71.6875 687.083 71.442 687.675 71.0052 688.112C70.5677 688.549 69.9755 688.795 69.3571 688.795H11.0982C10.4801 688.795 9.88742 688.549 9.45037 688.112C9.01338 687.675 8.76786 687.083 8.76786 686.464V642.964ZM79.4554 653.839H81.7857C85.2179 653.839 88 656.622 88 660.054V672.482C88 675.914 85.2179 678.696 81.7857 678.696H79.4554V686.464C79.4554 689.143 78.3915 691.711 76.4974 693.604C74.6039 695.499 72.0355 696.562 69.3571 696.562H11.0982C8.41998 696.562 5.85148 695.499 3.9577 693.604C2.06392 691.711 1 689.143 1 686.464V642.964C1 630.523 11.0856 620.438 23.5268 620.438H63.1429C65.288 620.438 67.0268 622.176 67.0268 624.321V635.973H69.3571C72.0355 635.973 74.6039 637.037 76.4974 638.931C78.3915 640.825 79.4554 643.393 79.4554 646.071V653.839Z" fill="#0C098C"/>
<defs>
<clipPath id="clip0_94_393">
<rect width="83" height="85" fill="white" transform="translate(1273 629)"/>
</clipPath>
<clipPath id="clip1_94_393">
<rect width="108" height="101" fill="white" transform="translate(1019 607)"/>
</clipPath>
<clipPath id="clip2_94_393">
<rect width="89" height="86" fill="white" transform="translate(1151 543)"/>
</clipPath>
<clipPath id="clip3_94_393">
<rect width="83" height="89" fill="white" transform="translate(1154 61)"/>
</clipPath>
<clipPath id="clip4_94_393">
<rect width="87" height="88" fill="white" transform="translate(1274)"/>
</clipPath>
<clipPath id="clip5_94_393">
<rect width="88" height="87" fill="white" transform="translate(1019 134)"/>
</clipPath>
<clipPath id="clip6_94_393">
<rect width="90" height="90" fill="white" transform="translate(1273 138)"/>
</clipPath>
<clipPath id="clip7_94_393">
<rect width="76" height="81" fill="white" transform="translate(1025 304)"/>
</clipPath>
<clipPath id="clip8_94_393">
<rect width="88" height="85" fill="white" transform="translate(1024 439)"/>
</clipPath>
<clipPath id="clip9_94_393">
<rect width="90" height="85" fill="white" transform="translate(1273 301)"/>
</clipPath>
<clipPath id="clip10_94_393">
<rect width="90" height="94" fill="white" transform="translate(0 13)"/>
</clipPath>
<clipPath id="clip11_94_393">
<rect width="94" height="94" fill="white" transform="translate(252 13)"/>
</clipPath>
<clipPath id="clip12_94_393">
<rect width="92" height="94" fill="white" transform="translate(259 134)"/>
</clipPath>
<clipPath id="clip13_94_393">
<rect width="95" height="93" fill="white" transform="translate(3 138)"/>
</clipPath>
<clipPath id="clip14_94_393">
<rect width="97" height="93" fill="white" transform="translate(124 61)"/>
</clipPath>
<clipPath id="clip15_94_393">
<rect width="86" height="86" fill="white" transform="translate(256 615)"/>
</clipPath>
<clipPath id="clip16_94_393">
<rect width="90" height="91" fill="white" transform="translate(128 352)"/>
</clipPath>
</defs>
</svg>
