<svg width="344" height="714" viewBox="0 0 344 714" fill="none" xmlns="http://www.w3.org/2000/svg">
<path d="M310.893 6.04082H334.107C334.6 6.04082 335 5.63881 335 5.14286V2.89796C335 2.40201 334.6 2 334.107 2H310.893C310.4 2 310 2.40201 310 2.89796V5.14286C310 5.63881 310.4 6.04082 310.893 6.04082ZM310.893 15.0204H334.107C334.6 15.0204 335 14.6184 335 14.1224V11.8776C335 11.3816 334.6 10.9796 334.107 10.9796H310.893C310.4 10.9796 310 11.3816 310 11.8776V14.1224C310 14.6184 310.4 15.0204 310.893 15.0204ZM310.893 24H334.107C334.6 24 335 23.598 335 23.102V20.8571C335 20.3612 334.6 19.9592 334.107 19.9592H310.893C310.4 19.9592 310 20.3612 310 20.8571V23.102C310 23.598 310.4 24 310.893 24Z" fill="#F2F3F4"/>
<circle cx="288" cy="13" r="12" fill="#F2F3F4"/>
<g clip-path="url(#clip0_94_392)">
<path d="M295.5 710.211C314.158 710.211 327.485 702.838 327.485 686.426C327.485 668.586 319.489 656.693 303.496 647.774L309.787 638.735C310.106 638.142 310.28 637.465 310.289 636.774C310.299 636.082 310.144 635.399 309.841 634.796C309.538 634.192 309.097 633.688 308.563 633.336C308.03 632.983 307.422 632.795 306.802 632.789H284.199C283.579 632.795 282.971 632.983 282.437 633.336C281.903 633.688 281.462 634.192 281.159 634.796C280.856 635.399 280.702 636.082 280.711 636.774C280.721 637.465 280.894 638.142 281.213 638.735L287.504 647.833C271.511 656.812 263.515 668.705 263.515 686.544C263.515 702.838 276.842 710.211 295.5 710.211Z" fill="#FDDC5C"/>
<path fill-rule="evenodd" clip-rule="evenodd" d="M284.199 628.994L284.164 628.994C282.826 629.007 281.537 629.415 280.429 630.147C279.325 630.876 278.451 631.892 277.864 633.061C277.278 634.228 276.988 635.526 277.006 636.827C277.024 638.128 277.349 639.418 277.969 640.569C278.036 640.693 278.11 640.813 278.189 640.928L282.142 646.645C275.477 650.885 270.173 655.838 266.402 661.804C261.957 668.837 259.81 677.012 259.81 686.545C259.81 695.935 263.74 703.045 270.451 707.642C276.959 712.1 285.782 714.006 295.5 714.006C305.218 714.006 314.045 712.1 320.555 707.623C327.269 703.006 331.191 695.865 331.191 686.426C331.191 676.893 329.043 668.717 324.598 661.691C320.829 655.736 315.531 650.8 308.875 646.584L312.804 640.938C312.887 640.819 312.962 640.696 313.031 640.569C313.651 639.418 313.977 638.128 313.994 636.827C314.012 635.526 313.723 634.228 313.136 633.061C312.55 631.892 311.676 630.876 310.571 630.147C309.464 629.415 308.174 629.007 306.836 628.994L306.802 628.994H284.199ZM290.528 645.641L284.427 636.817C284.421 636.789 284.417 636.756 284.416 636.72C284.415 636.667 284.423 636.621 284.434 636.584H306.566C306.577 636.621 306.585 636.667 306.584 636.72C306.584 636.755 306.58 636.787 306.574 636.814L300.479 645.571C299.864 646.456 299.648 647.568 299.886 648.626C300.124 649.684 300.793 650.587 301.724 651.106C309.349 655.359 314.808 660.176 318.378 665.819C321.928 671.429 323.78 678.119 323.78 686.426C323.78 693.398 321.038 698.15 316.424 701.323C311.606 704.635 304.441 706.417 295.5 706.417C286.56 706.417 279.391 704.636 274.571 701.334C269.953 698.171 267.221 693.448 267.221 686.545C267.221 678.238 269.072 671.547 272.623 665.928C276.195 660.276 281.657 655.444 289.285 651.161C290.212 650.641 290.877 649.74 291.115 648.686C291.352 647.632 291.138 646.524 290.528 645.641ZM305.011 666.77C306.515 663.302 306.514 663.302 306.513 663.301L306.492 663.292L306.456 663.276L306.352 663.23C306.267 663.194 306.153 663.146 306.012 663.09C305.731 662.978 305.34 662.831 304.863 662.674C303.918 662.362 302.584 661.994 301.059 661.79C298.158 661.402 293.667 661.51 290.286 664.972C287.928 667.388 287.253 670.548 287.039 673.194C286.96 674.171 286.939 675.216 286.945 676.257H285.125C283.079 676.257 281.42 677.956 281.42 680.051C281.42 682.147 283.079 683.846 285.125 683.846H286.982C286.896 684.923 286.731 685.808 286.457 686.534C286.077 687.54 285.475 688.31 284.022 688.823C283.761 688.907 283.512 689.019 283.279 689.156C282.827 689.422 282.444 689.777 282.145 690.191C281.815 690.647 281.583 691.182 281.48 691.763C281.404 692.185 281.397 692.624 281.468 693.063C281.537 693.496 281.678 693.905 281.878 694.276C282.155 694.794 282.541 695.226 282.995 695.552C283.404 695.847 283.874 696.06 284.382 696.165C284.653 696.222 284.933 696.249 285.215 696.242H305.875C307.922 696.242 309.58 694.543 309.58 692.447C309.58 690.351 307.922 688.652 305.875 688.652H293.585C294.094 687.079 294.32 685.426 294.412 683.846H302.417C304.463 683.846 306.122 682.147 306.122 680.051C306.122 677.956 304.463 676.257 302.417 676.257H294.353C294.346 675.413 294.361 674.612 294.425 673.819C294.586 671.82 295.02 670.857 295.526 670.339C296.469 669.374 298.03 669.039 300.1 669.315C301.06 669.444 301.942 669.683 302.591 669.898C302.911 670.003 303.162 670.098 303.324 670.163C303.404 670.195 303.461 670.219 303.493 670.232L303.518 670.243C305.385 671.084 307.567 670.222 308.397 668.311C309.228 666.396 308.383 664.152 306.513 663.301L305.011 666.77Z" fill="#0C098C"/>
</g>
<g clip-path="url(#clip1_94_392)">
<path d="M65.5714 647.58H19.2857C15.0253 647.58 11.5714 650.81 11.5714 654.795V689.062C11.5714 697.031 18.479 703.491 27 703.491H57.8571C66.3781 703.491 73.2857 697.031 73.2857 689.062V654.795C73.2857 650.81 69.8319 647.58 65.5714 647.58Z" fill="#FDDC5C"/>
<path fill-rule="evenodd" clip-rule="evenodd" d="M26.2617 636.475C23.7666 634.608 23.362 631.204 25.3581 628.87C26.1376 627.959 26.3977 627.424 26.4781 627.188C26.3965 627.048 26.1321 626.644 25.3054 625.648L25.1371 625.447C24.2003 624.329 22.3099 622.075 21.81 619.098C21.2054 615.5 22.6899 612.15 25.3581 609.031C27.3542 606.697 30.9952 606.319 33.4903 608.186C35.9854 610.053 36.39 613.458 34.3939 615.791C33.6144 616.702 33.3543 617.237 33.2739 617.473C33.3555 617.614 33.6199 618.017 34.4467 619.013L34.6149 619.215C35.5518 620.332 37.4421 622.586 37.9421 625.563C38.5466 629.162 37.0621 632.511 34.3939 635.63C32.3978 637.964 28.7569 638.342 26.2617 636.475ZM33.2426 617.62C33.2426 617.62 33.2392 617.596 33.2527 617.544C33.2527 617.593 33.2426 617.62 33.2426 617.62ZM26.5094 627.041C26.5094 627.041 26.5128 627.065 26.4993 627.117C26.4993 627.068 26.5094 627.041 26.5094 627.041ZM19.2857 643.072C12.3625 643.072 6.75 648.32 6.75 654.795V689.062C6.75 699.522 15.8162 708 27 708H57.8571C67.3794 708 75.3666 701.853 77.5294 693.571H79.0714C91.8532 693.571 102.214 683.882 102.214 671.929C102.214 659.976 91.8532 650.286 79.0714 650.286H77.1467C75.2572 646.049 70.7862 643.072 65.5714 643.072H19.2857ZM78.1071 661.107V682.75H79.0714C85.4619 682.75 90.6429 677.905 90.6429 671.929C90.6429 665.952 85.4619 661.107 79.0714 661.107H78.1071ZM16.3929 654.795C16.3929 653.301 17.688 652.09 19.2857 652.09H65.5714C67.1691 652.09 68.4643 653.301 68.4643 654.795V689.062C68.4643 694.541 63.7153 698.982 57.8571 698.982H27C21.1418 698.982 16.3929 694.541 16.3929 689.062V654.795ZM50.4295 628.87C48.4334 631.204 48.838 634.608 51.3331 636.475C53.8283 638.342 57.4692 637.964 59.4653 635.63C62.1336 632.511 63.618 629.162 63.0135 625.563C62.5135 622.586 60.6233 620.332 59.6864 619.215L59.5181 619.013C58.6914 618.017 58.4269 617.614 58.3453 617.473C58.4258 617.237 58.6858 616.702 59.4653 615.791C61.4614 613.458 61.0569 610.053 58.5618 608.186C56.0666 606.319 52.4257 606.697 50.4295 609.031C47.7613 612.15 46.2768 615.5 46.8814 619.098C47.3814 622.075 49.2717 624.329 50.2085 625.447L50.3768 625.648C51.2035 626.644 51.4679 627.048 51.5496 627.188C51.4691 627.424 51.209 627.959 50.4295 628.87ZM58.314 617.62C58.314 617.62 58.3107 617.596 58.3241 617.544C58.3241 617.593 58.314 617.62 58.314 617.62ZM51.5809 627.041C51.5809 627.041 51.5842 627.065 51.5708 627.117C51.5708 627.068 51.5809 627.041 51.5809 627.041Z" fill="#0C098C"/>
</g>
<g clip-path="url(#clip2_94_392)">
<path fill-rule="evenodd" clip-rule="evenodd" d="M135.973 559.186H158.694C156.808 560.333 155.008 561.69 153.426 563.295C150.519 566.247 147.893 570.566 147.893 576.018V606.028C140.657 603.794 135.973 600.145 135.973 596.044V559.186ZM159.812 612.875V576.018H217.027V612.875C217.027 619.632 204.312 625.161 188.42 625.161C172.527 625.161 159.812 619.632 159.812 612.875Z" fill="#FDDC5C"/>
<path fill-rule="evenodd" clip-rule="evenodd" d="M164.58 543.061C156.258 543.061 148.532 544.503 142.738 546.991C139.846 548.233 137.26 549.811 135.343 551.758C133.407 553.724 132 556.241 132 559.186V596.044C132 599.053 133.468 601.616 135.473 603.605C137.46 605.576 140.142 607.17 143.147 608.417C145.164 609.253 147.5 608.351 148.365 606.402C149.231 604.454 148.298 602.197 146.281 601.36C143.887 600.368 142.199 599.272 141.165 598.247C140.149 597.239 139.946 596.498 139.946 596.044V588.451C140.956 589.012 142.029 589.524 143.147 589.988C145.164 590.824 147.5 589.923 148.365 587.974C149.231 586.026 148.298 583.768 146.281 582.932C143.887 581.939 142.199 580.843 141.165 579.818C140.149 578.81 139.946 578.07 139.946 577.615V570.018C140.834 570.512 141.769 570.966 142.738 571.382C144.388 572.09 146.193 572.714 148.125 573.243C148.827 569.087 151.031 565.727 153.426 563.295C156.282 560.396 159.852 558.308 163.35 556.805C170.378 553.787 179.252 552.214 188.42 552.214C190.45 552.214 192.467 552.291 194.452 552.444C194.248 552.209 194.036 551.98 193.818 551.758C191.9 549.811 189.314 548.233 186.422 546.991C180.629 544.503 172.903 543.061 164.58 543.061ZM221 576.018C221 573.072 219.593 570.555 217.657 568.589C215.74 566.642 213.153 565.064 210.262 563.822C204.468 561.334 196.742 559.893 188.42 559.893C180.097 559.893 172.371 561.334 166.578 563.822C163.686 565.064 161.1 566.642 159.182 568.589C157.246 570.555 155.839 573.072 155.839 576.018V612.875C155.839 615.809 157.235 618.321 159.164 620.286C161.072 622.232 163.65 623.813 166.537 625.058C172.322 627.552 180.05 629 188.42 629C196.789 629 204.517 627.552 210.302 625.058C213.19 623.813 215.767 622.232 217.676 620.286C219.604 618.321 221 615.809 221 612.875V576.018ZM163.786 586.85C164.673 587.343 165.608 587.797 166.578 588.214C172.371 590.702 180.097 592.143 188.42 592.143C196.742 592.143 204.468 590.702 210.262 588.214C211.231 587.797 212.166 587.343 213.054 586.85V594.446C213.054 594.891 212.86 595.605 211.908 596.576C210.936 597.567 209.342 598.635 207.064 599.617C202.519 601.577 195.943 602.893 188.42 602.893C180.896 602.893 174.321 601.577 169.775 599.617C167.498 598.635 165.903 597.567 164.931 596.576C163.979 595.605 163.786 594.891 163.786 594.446V586.85ZM166.537 606.63C165.582 606.217 164.66 605.769 163.786 605.282V612.875C163.786 613.32 163.979 614.033 164.931 615.004C165.903 615.995 167.498 617.064 169.775 618.045C174.321 620.005 180.896 621.321 188.42 621.321C195.943 621.321 202.519 620.005 207.064 618.045C209.342 617.064 210.936 615.995 211.908 615.004C212.86 614.033 213.054 613.32 213.054 612.875V605.282C212.179 605.769 211.258 606.217 210.302 606.63C204.517 609.124 196.789 610.571 188.42 610.571C180.05 610.571 172.322 609.124 166.537 606.63Z" fill="#0C098C"/>
</g>
<path d="M72.9353 17.9655L82.6139 32.5295C83.622 34.0462 84.1607 35.8379 84.1607 37.6719C84.1607 39.9081 83.3603 42.0667 81.91 43.7397L50.1093 80.4342C48.8132 81.9296 46.9534 82.7857 45 82.7857C43.0466 82.7857 41.1868 81.9296 39.8907 80.4342L8.08984 43.7397C6.63993 42.0667 5.83929 39.9081 5.83929 37.6719C5.83929 35.8379 6.37822 34.0462 7.38612 32.5295L17.0646 17.9655C18.2082 16.2444 20.1103 15.2143 22.1443 15.2143H67.8557C69.8896 15.2143 71.7915 16.2444 72.9353 17.9655Z" fill="#FF7972"/>
<path fill-rule="evenodd" clip-rule="evenodd" d="M52.1891 19.1428L61.5071 35.2347H28.4929L37.8109 19.1428H52.1891ZM11.2979 41.5204L42.7632 77.8275C42.8709 77.952 42.9875 78.0664 43.1115 78.1695L28.1182 41.5204H11.2979ZM61.9961 41.5204L46.908 78.1531C47.0248 78.0538 47.1348 77.9457 47.2368 77.8275L78.7022 41.5204H61.9961ZM76.1105 15.7564C74.2517 12.9597 71.1606 11.2857 67.8557 11.2857H22.1443C18.8391 11.2857 15.7483 12.9597 13.8897 15.7564L4.21131 30.3204C2.77046 32.4886 2 35.05 2 37.6719C2 40.8687 3.14457 43.9546 5.21733 46.3463L37.0182 83.0409C39.0429 85.3773 41.9484 86.7143 45 86.7143C48.0516 86.7143 50.9571 85.3773 52.9818 83.0409L84.7824 46.3463C86.8556 43.9546 88 40.8687 88 37.6719C88 35.05 87.2297 32.4886 85.7886 30.3204L76.1105 15.7564Z" fill="#0C098C"/>
<g clip-path="url(#clip3_94_392)">
<path d="M176.5 146.033C195.158 146.033 208.485 138.312 208.485 121.128C208.485 102.449 200.489 89.9966 184.496 80.6572L190.787 71.1933C191.106 70.5723 191.28 69.8638 191.289 69.1394C191.299 68.415 191.144 67.7005 190.841 67.0683C190.538 66.4362 190.097 65.9089 189.563 65.5399C189.03 65.1709 188.422 64.9732 187.802 64.967H165.199C164.579 64.9732 163.971 65.1709 163.437 65.5399C162.903 65.9089 162.462 66.4362 162.159 67.0683C161.856 67.7005 161.702 68.415 161.711 69.1394C161.721 69.8638 161.894 70.5723 162.213 71.1933L168.504 80.7195C152.511 90.1211 144.515 102.574 144.515 121.252C144.515 138.312 157.842 146.033 176.5 146.033Z" fill="#FF7972"/>
<path fill-rule="evenodd" clip-rule="evenodd" d="M165.199 60.994L165.164 60.9941C163.826 61.0076 162.537 61.435 161.429 62.2007C160.325 62.9643 159.451 64.0281 158.864 65.2518C158.278 66.4743 157.988 67.8334 158.006 69.1956C158.024 70.5578 158.349 71.9083 158.969 73.1131C159.036 73.2429 159.11 73.3685 159.189 73.4894L163.142 79.4751C156.477 83.9152 151.173 89.1006 147.402 95.3481C142.957 102.711 140.81 111.271 140.81 121.253C140.81 131.085 144.74 138.53 151.451 143.343C157.959 148.011 166.782 150.006 176.5 150.006C186.218 150.006 195.045 148.011 201.555 143.323C208.269 138.489 212.191 131.012 212.191 121.128C212.191 111.147 210.043 102.586 205.598 95.2296C201.829 88.9946 196.531 83.8255 189.875 79.411L193.804 73.4995C193.887 73.3754 193.962 73.2465 194.031 73.1131C194.651 71.9083 194.977 70.5577 194.994 69.1956C195.012 67.8335 194.723 66.4743 194.136 65.2518C193.55 64.0281 192.676 62.9643 191.571 62.2007C190.464 61.435 189.174 61.0076 187.836 60.9941L187.802 60.994H165.199ZM171.528 78.4236L165.427 69.1848C165.421 69.1553 165.417 69.1213 165.416 69.0834C165.415 69.0279 165.423 68.9792 165.434 68.9404H187.566C187.577 68.9792 187.585 69.0279 187.584 69.0834C187.584 69.1201 187.58 69.1532 187.574 69.182L181.479 78.3513C180.864 79.2772 180.648 80.4414 180.886 81.5494C181.124 82.6573 181.793 83.6029 182.724 84.1467C190.349 88.5995 195.808 93.6432 199.378 99.5512C202.928 105.425 204.78 112.43 204.78 121.128C204.78 128.429 202.038 133.404 197.424 136.726C192.606 140.195 185.441 142.06 176.5 142.06C167.56 142.06 160.391 140.195 155.571 136.738C150.953 133.426 148.221 128.48 148.221 121.253C148.221 112.555 150.072 105.549 153.623 99.6662C157.195 93.7483 162.657 88.6883 170.285 84.2036C171.212 83.6589 171.877 82.7162 172.115 81.6122C172.352 80.5083 172.138 79.3482 171.528 78.4236ZM164.395 103.911H174.224C175.157 104.279 176.542 105.233 177.343 106.957H164.395C162.349 106.957 160.69 108.736 160.69 110.93C160.69 113.124 162.349 114.903 164.395 114.903H175.832C175.127 115.523 174.274 116.039 173.309 116.483C171.919 117.122 170.482 117.499 169.362 117.713C168.81 117.819 168.357 117.881 168.052 117.916C167.899 117.934 167.786 117.944 167.717 117.95L167.65 117.955L167.643 117.956C166.143 118.047 164.841 119.101 164.35 120.625C163.857 122.153 164.277 123.848 165.412 124.913L167.852 121.923C165.412 124.913 165.411 124.912 165.412 124.913L165.419 124.92L165.54 125.031C165.61 125.094 165.707 125.18 165.829 125.288C166.074 125.502 166.424 125.799 166.872 126.159C167.765 126.878 169.054 127.85 170.684 128.911C173.932 131.026 178.601 133.535 184.245 135.048C186.23 135.581 188.242 134.286 188.738 132.157C189.235 130.028 188.028 127.871 186.042 127.339C182.477 126.383 179.341 124.941 176.812 123.507C179.82 122.001 183.174 119.335 184.639 114.903H188.604C190.65 114.903 192.309 113.124 192.309 110.93C192.309 108.736 190.65 106.957 188.604 106.957H185.124C184.922 105.849 184.614 104.835 184.226 103.911H188.604C190.65 103.911 192.309 102.132 192.309 99.9377C192.309 97.7433 190.65 95.9645 188.604 95.9645H174.846C174.792 95.9632 174.739 95.9632 174.685 95.9645H164.395C162.349 95.9645 160.69 97.7433 160.69 99.9377C160.69 102.132 162.349 103.911 164.395 103.911Z" fill="#0C098C"/>
</g>
<g clip-path="url(#clip4_94_392)">
<path d="M298.5 84.084C320.383 84.084 338.122 66.1408 338.122 44.0063C338.122 21.872 320.383 3.92857 298.5 3.92857C276.617 3.92857 258.878 21.872 258.878 44.0063C258.878 66.1408 276.617 84.084 298.5 84.084Z" fill="#7AF1FF"/>
<path fill-rule="evenodd" clip-rule="evenodd" d="M274.599 17.1305C280.026 12.1889 286.959 8.90529 294.616 8.06816V79.9442C286.956 79.107 280.021 75.8214 274.593 70.8765C282.278 64.2123 286.839 54.2985 286.839 44.0002C286.839 33.6965 282.273 23.7929 274.599 17.1305ZM322.407 70.8765C316.979 75.8214 310.044 79.107 302.384 79.9442V8.06816C310.041 8.90516 316.974 12.1888 322.401 17.1303C314.727 23.7928 310.161 33.6965 310.161 44.0002C310.161 54.2986 314.722 64.213 322.407 70.8765ZM327.585 65.0169C331.774 59.0958 334.238 51.8422 334.238 44.0063C334.238 36.1674 331.772 28.9113 327.58 22.9888C321.544 28.1672 317.929 35.9469 317.929 44.0002C317.929 52.0499 321.54 59.839 327.585 65.0169ZM279.071 44.0002C279.071 52.0498 275.46 59.8389 269.415 65.0169C265.227 59.0957 262.762 51.8421 262.762 44.0063C262.762 36.1674 265.228 28.9114 269.42 22.9889C275.455 28.1673 279.071 35.9471 279.071 44.0002ZM254.994 44.0063C254.994 19.7023 274.472 0 298.5 0C322.528 0 342.006 19.7023 342.006 44.0063C342.006 68.31 322.528 88.0126 298.5 88.0126C274.472 88.0126 254.994 68.31 254.994 44.0063Z" fill="#0C098C"/>
</g>
<g clip-path="url(#clip5_94_392)">
<path d="M23.6877 189.21C23.6877 189.21 28.763 197.867 43.998 197.867C59.233 197.867 64.3438 189.21 64.3438 189.21L64.34 169.682H23.6482L23.6877 189.21Z" fill="#79EE8D"/>
<path fill-rule="evenodd" clip-rule="evenodd" d="M45.5619 140.497C44.5654 140.07 43.4347 140.07 42.4382 140.497L2.36062 157.664C0.923802 158.28 -0.00610352 159.68 -0.00610352 161.228C-0.00610352 162.776 0.923802 164.177 2.36062 164.792L6.79678 166.692V194.484C2.85359 196.03 0.0652554 199.835 0.0652554 204.284C0.0652554 210.104 4.83794 214.823 10.7253 214.823C16.6127 214.823 21.3854 210.104 21.3854 204.284C21.3854 199.835 18.5971 196.03 14.6539 194.484V170.058L19.7245 172.23L19.7589 189.218C19.7602 189.899 19.9429 190.568 20.2886 191.158L23.6877 189.21C20.2888 191.158 20.2872 191.156 20.2886 191.158L20.2938 191.167L20.2996 191.177L20.3127 191.199L20.3452 191.252C20.3696 191.292 20.3998 191.34 20.4356 191.396C20.5075 191.507 20.6027 191.649 20.7228 191.818C20.9627 192.155 21.3027 192.598 21.754 193.111C22.6567 194.138 24.0088 195.447 25.8986 196.736C29.7193 199.341 35.5731 201.751 43.9978 201.751C52.4223 201.751 58.2831 199.341 62.1103 196.739C64.0037 195.451 65.3595 194.143 66.2653 193.118C66.7185 192.606 67.0598 192.163 67.3006 191.826C67.4212 191.658 67.5168 191.516 67.5884 191.405C67.6249 191.349 67.6551 191.301 67.6796 191.262L67.7123 191.209L67.7255 191.187L67.7311 191.177C67.7324 191.175 67.7368 191.168 64.3438 189.21L67.7362 191.168C68.0869 190.574 68.2723 189.898 68.2717 189.21L68.2686 172.233L85.6398 164.792C87.076 164.177 88.0063 162.776 88.0063 161.228C88.0063 159.68 87.076 158.28 85.6398 157.664L45.5619 140.497ZM60.4122 175.598L60.4145 187.932L60.3482 188.008C59.8195 188.606 58.9456 189.462 57.657 190.339C55.1202 192.064 50.8082 193.983 43.9978 193.983C37.1875 193.983 32.8861 192.064 30.3604 190.342C29.077 189.466 28.2081 188.611 27.683 188.014L27.6134 187.934L27.5885 175.598L42.4382 181.959C43.4347 182.386 44.5654 182.386 45.5619 181.959L60.4122 175.598Z" fill="#0C098C"/>
</g>
<g clip-path="url(#clip6_94_392)">
<path d="M299 228C323.853 228 344 207.853 344 183C344 158.147 323.853 138 299 138C274.147 138 254 158.147 254 183C254 207.853 274.147 228 299 228Z" fill="#FDDC5C"/>
<path fill-rule="evenodd" clip-rule="evenodd" d="M301.616 155.598C296.668 159.23 292.712 163.976 290.268 169.339H308.643C310.862 169.339 312.661 171.138 312.661 173.357C312.661 175.576 310.862 177.375 308.643 177.375H287.859C287.583 179.195 287.477 181.052 287.559 182.931C287.564 183.047 287.564 183.162 287.559 183.278C287.481 185.076 287.58 186.863 287.842 188.625H308.643C310.862 188.625 312.661 190.424 312.661 192.643C312.661 194.862 310.862 196.661 308.643 196.661H290.215C292.679 202.156 296.706 207.066 301.739 210.77C310.589 217.281 322.09 219.73 332.833 215.325C334.886 214.483 337.233 215.466 338.074 217.519C338.916 219.572 337.934 221.919 335.881 222.761C322.097 228.411 307.665 225.106 296.977 217.242C290.004 212.112 284.428 204.898 281.576 196.661H263.643C261.424 196.661 259.625 194.862 259.625 192.643C259.625 190.424 261.424 188.625 263.643 188.625H279.735C279.526 186.811 279.452 184.968 279.523 183.105C279.449 181.163 279.528 179.25 279.749 177.375H263.643C261.424 177.375 259.625 175.576 259.625 173.357C259.625 171.138 261.424 169.339 263.643 169.339H281.612C284.456 161.217 289.962 154.185 296.861 149.12C307.49 141.317 321.797 137.902 335.613 142.45C337.721 143.144 338.867 145.415 338.173 147.522C337.479 149.63 335.208 150.776 333.1 150.083C322.084 146.456 310.451 149.112 301.616 155.598Z" fill="#0C098C"/>
</g>
<g clip-path="url(#clip7_94_392)">
<path d="M63.994 310.173L50.7857 324.25L28.4256 312.902C24.6703 310.996 20.2233 311.544 16.9754 314.313L11.8328 318.698C10.3365 319.974 10.5181 322.456 12.1817 323.469L37.2143 338.714L27.0357 349.562L19.2313 348.283C14.0582 347.435 9.39286 351.7 9.39286 357.279C9.39286 359.503 10.9019 361.402 12.9608 361.768L25.6786 364.027L27.7982 377.581C28.1413 379.775 29.9227 381.384 32.0101 381.384C37.244 381.384 41.2465 376.412 40.4507 370.898L39.25 362.58L49.4286 351.732L63.7329 378.412C64.6834 380.185 67.0123 380.378 68.2093 378.783L72.323 373.302C74.9217 369.841 75.4358 365.101 73.6476 361.099L63 337.268L76.2083 323.191C77.744 321.554 78.6071 319.333 78.6071 317.018C78.6071 314.703 77.744 312.482 76.2083 310.845L75.5775 310.173C74.0417 308.536 71.9582 307.616 69.7857 307.616C67.6132 307.616 65.5297 308.536 63.994 310.173Z" fill="#7AF1FF"/>
<path fill-rule="evenodd" clip-rule="evenodd" d="M66.3929 312.73C67.2929 311.771 68.5133 311.232 69.7857 311.232C71.0582 311.232 72.2785 311.771 73.1786 312.73L73.8088 313.402C74.7089 314.361 75.2143 315.662 75.2143 317.018C75.2143 318.374 74.7089 319.675 73.8088 320.634L60.6011 334.711C59.5852 335.793 59.3192 337.44 59.9367 338.823L70.5843 362.654C71.8138 365.406 71.4604 368.663 69.6739 371.044L66.1833 375.694L52.3744 349.938C51.8498 348.96 50.927 348.298 49.8789 348.148C48.8308 347.998 47.7772 348.378 47.0295 349.175L36.8509 360.023C36.0867 360.838 35.7322 361.992 35.8966 363.13L37.0972 371.448C37.577 374.771 35.1646 377.768 32.0101 377.768C31.5813 377.768 31.2154 377.437 31.1449 376.987L29.0253 363.433C28.7869 361.908 27.6663 360.714 26.2364 360.46L13.5186 358.201C13.0957 358.126 12.7857 357.736 12.7857 357.279C12.7857 353.917 15.5976 351.346 18.7155 351.857L26.4782 353.13C26.5525 353.143 26.627 353.153 26.7017 353.161C27.6809 353.265 28.614 352.911 29.3017 352.254C29.3576 352.201 29.4119 352.145 29.4645 352.088L39.5584 341.33C39.6847 341.201 39.8027 341.061 39.9109 340.909C40.154 340.571 40.3335 340.197 40.4493 339.807C40.6035 339.29 40.6429 338.753 40.5773 338.234C40.5124 337.715 40.3418 337.208 40.0655 336.753C39.8574 336.409 39.5921 336.099 39.2739 335.84C39.1321 335.724 38.9837 335.622 38.8302 335.534L14.7319 320.857L19.0949 317.137C21.3278 315.233 24.3852 314.856 26.9669 316.167L49.327 327.515C50.6239 328.173 52.1691 327.889 53.1848 326.807L66.3929 312.73ZM31.6742 339.505L10.4984 326.608C6.75519 324.329 6.34678 318.745 9.71326 315.875L14.8559 311.49C19.1188 307.855 24.9554 307.136 29.8844 309.637L50.081 319.887L61.5945 307.616C63.7671 305.301 66.7137 304 69.7857 304C72.8577 304 75.8044 305.301 77.9769 307.616L78.6071 308.288C80.7797 310.603 82 313.743 82 317.018C82 320.292 80.7797 323.432 78.6071 325.748L67.0937 338.019L76.7109 359.544C79.0583 364.797 78.3829 371.018 74.9727 375.562L70.8584 381.043C68.1653 384.63 62.9262 384.195 60.7873 380.206L48.6866 357.637L42.8648 363.842L43.8041 370.348C44.9161 378.053 39.3235 385 32.0101 385C28.2641 385 25.0673 382.114 24.4515 378.176L22.7303 367.169L12.4031 365.334C8.70814 364.678 6 361.271 6 357.279C6 349.484 12.5188 343.524 19.7473 344.709L25.8523 345.71L31.6742 339.505Z" fill="#0C098C"/>
</g>
<path d="M209.786 394.429H142.214C138.743 394.429 135.929 397.211 135.929 400.643V450.357C135.929 453.789 138.743 456.571 142.214 456.571H209.786C213.257 456.571 216.071 453.789 216.071 450.357V400.643C216.071 397.211 213.257 394.429 209.786 394.429Z" fill="#FF7972"/>
<path fill-rule="evenodd" clip-rule="evenodd" d="M139.857 400.643C139.857 399.356 140.912 398.313 142.214 398.313H209.786C211.087 398.313 212.143 399.356 212.143 400.643V450.357C212.143 451.644 211.087 452.688 209.786 452.688H142.214C140.912 452.688 139.857 451.644 139.857 450.357V400.643ZM142.214 390.545C136.573 390.545 132 395.066 132 400.643V450.357C132 455.934 136.573 460.455 142.214 460.455H209.786C215.427 460.455 220 455.934 220 450.357V400.643C220 395.066 215.427 390.545 209.786 390.545H142.214ZM188.571 425.5C188.571 432.364 182.943 437.929 176 437.929C169.057 437.929 163.429 432.364 163.429 425.5C163.429 418.636 169.057 413.071 176 413.071C182.943 413.071 188.571 418.636 188.571 425.5ZM151.014 431.714C147.542 431.714 144.728 428.932 144.728 425.5C144.728 422.068 147.542 419.286 151.014 419.286C154.485 419.286 157.3 422.068 157.3 425.5C157.3 428.932 154.485 431.714 151.014 431.714ZM200.986 431.714C197.515 431.714 194.701 428.932 194.701 425.5C194.701 422.068 197.515 419.286 200.986 419.286C204.458 419.286 207.272 422.068 207.272 425.5C207.272 428.932 204.458 431.714 200.986 431.714Z" fill="#0C098C"/>
<g clip-path="url(#clip8_94_392)">
<path d="M68.7058 448.866H15.2775C11.806 448.866 8.9918 451.507 8.9918 454.764V494.575C8.9918 497.833 11.806 500.473 15.2775 500.473H68.7058C72.1774 500.473 74.9916 497.833 74.9916 494.575V454.764C74.9916 451.507 72.1774 448.866 68.7058 448.866Z" fill="#79EE8D"/>
<path fill-rule="evenodd" clip-rule="evenodd" d="M15.2775 452.661C13.8676 452.661 12.9204 453.705 12.9204 454.764V494.575C12.9204 495.634 13.8676 496.679 15.2775 496.679H68.7058C70.1157 496.679 71.063 495.634 71.063 494.575V454.764C71.063 453.705 70.1157 452.661 68.7058 452.661H15.2775ZM5.06323 454.764C5.06323 449.308 9.74445 445.071 15.2775 445.071H68.7058C74.2392 445.071 78.9201 449.308 78.9201 454.764V494.575C78.9201 500.031 74.2392 504.268 68.7058 504.268H15.2775C9.74445 504.268 5.06323 500.031 5.06323 494.575V454.764ZM68.7058 510.339H19.382C20.4021 514.743 24.5594 517.929 29.3573 517.929H82.7858C88.3191 517.929 93.0001 513.692 93.0001 508.236V468.424C93.0001 463.787 89.6184 460.031 85.2058 459.008V494.575C85.2058 503.568 77.5172 510.339 68.7058 510.339ZM17.0055 474.67C17.0055 477.604 19.4679 479.982 22.5055 479.982C25.543 479.982 28.0056 477.604 28.0056 474.67C28.0056 471.736 25.5432 469.357 22.5056 469.357C19.4681 469.357 17.0055 471.736 17.0055 474.67ZM55.9781 474.67C55.9781 477.604 58.4406 479.982 61.4781 479.982C64.5157 479.982 66.9783 477.604 66.9783 474.67C66.9783 471.736 64.5159 469.357 61.4783 469.357C58.4408 469.357 55.9781 471.736 55.9781 474.67ZM41.9918 465.563C36.7845 465.563 32.5632 469.64 32.5632 474.67C32.5632 479.699 36.7845 483.777 41.9918 483.777C47.1991 483.777 51.4204 479.699 51.4204 474.67C51.4204 469.64 47.1991 465.563 41.9918 465.563Z" fill="#0C098C"/>
</g>
<path d="M203.464 227.839H147.536C144.104 227.839 141.321 230.59 141.321 233.982V300.018C141.321 303.411 144.104 306.161 147.536 306.161H203.464C206.896 306.161 209.679 303.411 209.679 300.018V233.982C209.679 230.59 206.896 227.839 203.464 227.839Z" fill="#FF7972"/>
<path fill-rule="evenodd" clip-rule="evenodd" d="M145.205 233.982C145.205 232.71 146.249 231.679 147.536 231.679H171.616V302.321H147.536C146.249 302.321 145.205 301.29 145.205 300.018V233.982ZM179.384 302.321V231.679H203.464C204.751 231.679 205.795 232.71 205.795 233.982V300.018C205.795 301.29 204.751 302.321 203.464 302.321H179.384ZM147.536 310C141.959 310 137.438 305.531 137.438 300.018V233.982C137.438 228.469 141.959 224 147.536 224H203.464C209.042 224 213.562 228.469 213.562 233.982V300.018C213.562 305.531 209.042 310 203.464 310H147.536ZM191.036 259.321C193.61 259.321 195.696 261.384 195.696 263.929V270.071C195.696 272.616 193.61 274.679 191.036 274.679C188.462 274.679 186.375 272.616 186.375 270.071V263.929C186.375 261.384 188.462 259.321 191.036 259.321ZM164.625 263.929C164.625 261.384 162.538 259.321 159.964 259.321C157.39 259.321 155.304 261.384 155.304 263.929V270.071C155.304 272.616 157.39 274.679 159.964 274.679C162.538 274.679 164.625 272.616 164.625 270.071V263.929Z" fill="#0C098C"/>
<path fill-rule="evenodd" clip-rule="evenodd" d="M263.6 477.137H331.403C334.615 477.137 335.992 473.835 333.468 472.265L299.567 451.316C298.941 450.969 298.228 450.786 297.502 450.786C296.775 450.786 296.062 450.969 295.436 451.316L261.535 472.265C259.011 473.835 260.388 477.137 263.6 477.137ZM263.082 506.51H331.918C333.502 506.51 334.786 507.737 334.786 509.251V517.473C334.786 518.987 333.502 520.214 331.918 520.214H263.082C261.498 520.214 260.214 518.987 260.214 517.473V509.251C260.214 507.737 261.498 506.51 263.082 506.51Z" fill="#FDDC5C"/>
<path fill-rule="evenodd" clip-rule="evenodd" d="M266.527 473.521L297.454 454.41C297.471 454.404 297.487 454.402 297.502 454.402C297.516 454.402 297.532 454.404 297.549 454.41L328.476 473.521H266.527ZM297.502 447.17C296.072 447.17 294.673 447.53 293.447 448.21C293.394 448.24 293.341 448.271 293.289 448.304L259.387 469.252L259.378 469.258C256.571 471.004 255.716 474.034 256.801 476.609C257.844 479.087 260.48 480.753 263.6 480.753H264.157V502.894H263.082C259.259 502.894 256.33 505.829 256.33 509.251V517.473C256.33 520.895 259.259 523.83 263.082 523.83H331.918C335.741 523.83 338.67 520.895 338.67 517.473V509.251C338.67 505.829 335.741 502.894 331.918 502.894H330.843V480.753H331.403C334.523 480.753 337.159 479.087 338.202 476.609C339.287 474.034 338.432 471.004 335.625 469.258L335.616 469.252L301.714 448.304C301.662 448.271 301.609 448.24 301.556 448.21C300.33 447.53 298.931 447.17 297.502 447.17ZM319.968 480.753H312.239V502.894H319.968V480.753ZM301.364 480.753H293.636V502.894H301.364V480.753ZM282.761 480.753H275.032V502.894H282.761V480.753ZM264.098 516.598V510.126H330.902V516.598H264.098Z" fill="#0C098C"/>
<g clip-path="url(#clip9_94_392)">
<path d="M299 382.211C319.231 382.211 333.683 374.838 333.683 358.426C333.683 340.586 325.012 328.693 307.671 319.774L314.491 310.735C314.838 310.142 315.026 309.465 315.036 308.774C315.047 308.082 314.879 307.399 314.55 306.796C314.222 306.192 313.744 305.688 313.165 305.336C312.586 304.983 311.927 304.795 311.254 304.789H286.745C286.073 304.795 285.414 304.983 284.835 305.336C284.256 305.688 283.778 306.192 283.45 306.796C283.121 307.399 282.953 308.082 282.964 308.774C282.974 309.465 283.162 310.142 283.508 310.735L290.329 319.833C272.988 328.812 264.317 340.705 264.317 358.544C264.317 374.838 278.768 382.211 299 382.211Z" fill="#7AF1FF"/>
<path fill-rule="evenodd" clip-rule="evenodd" d="M286.745 300.994L286.708 300.994C285.257 301.007 283.859 301.415 282.658 302.147C281.46 302.876 280.513 303.892 279.876 305.061C279.241 306.228 278.927 307.526 278.946 308.827C278.966 310.128 279.318 311.418 279.991 312.569C280.063 312.693 280.143 312.813 280.229 312.928L284.515 318.645C277.288 322.885 271.537 327.838 267.447 333.804C262.628 340.837 260.3 349.012 260.3 358.545C260.3 367.935 264.562 375.045 271.838 379.642C278.895 384.1 288.462 386.006 299 386.006C309.537 386.006 319.108 384.1 326.168 379.623C333.448 375.006 337.701 367.865 337.701 358.426C337.701 348.893 335.372 340.717 330.551 333.691C326.465 327.736 320.72 322.8 313.503 318.584L317.763 312.938C317.853 312.819 317.935 312.696 318.009 312.569C318.682 311.418 319.035 310.128 319.054 308.827C319.073 307.526 318.759 306.228 318.124 305.061C317.487 303.892 316.54 302.876 315.342 302.147C314.141 301.415 312.743 301.007 311.292 300.994L311.254 300.994H286.745ZM293.608 317.641L286.993 308.817C286.986 308.789 286.982 308.756 286.981 308.72C286.98 308.667 286.989 308.621 287.001 308.584H310.999C311.011 308.621 311.02 308.667 311.019 308.72C311.018 308.755 311.014 308.787 311.007 308.814L304.399 317.571C303.731 318.456 303.497 319.568 303.755 320.626C304.013 321.684 304.739 322.587 305.749 323.106C314.017 327.359 319.936 332.176 323.808 337.819C327.657 343.429 329.665 350.119 329.665 358.426C329.665 365.398 326.692 370.15 321.688 373.323C316.464 376.635 308.694 378.417 299 378.417C289.306 378.417 281.532 376.636 276.306 373.334C271.299 370.171 268.335 365.448 268.335 358.545C268.335 350.238 270.342 343.547 274.193 337.928C278.067 332.276 283.989 327.444 292.261 323.161C293.265 322.641 293.987 321.74 294.244 320.686C294.502 319.632 294.27 318.524 293.608 317.641ZM303.018 330.598V333.505C305.583 333.881 307.857 335.097 309.506 336.838C310.449 337.833 311.194 339.004 311.678 340.296C312.417 342.272 311.32 344.44 309.228 345.139C307.136 345.837 304.841 344.801 304.101 342.826C303.973 342.484 303.775 342.169 303.518 341.899C302.973 341.324 302.194 340.971 301.321 340.971H295.931C294.716 340.971 293.732 341.9 293.732 343.047C293.732 344.023 294.451 344.867 295.461 345.076L303.668 346.771C308.711 347.813 312.303 352.033 312.303 356.906C312.303 362.088 308.279 366.386 303.018 367.157V370.063C303.018 372.159 301.219 373.858 299 373.858C296.781 373.858 294.982 372.159 294.982 370.063V367.157C290.948 366.567 287.646 363.904 286.322 360.365C285.583 358.389 286.679 356.221 288.771 355.523C290.864 354.825 293.159 355.86 293.899 357.836C294.305 358.922 295.402 359.691 296.678 359.691H301.321C302.947 359.691 304.268 358.445 304.268 356.906C304.268 355.597 303.302 354.465 301.951 354.185L293.744 352.49C289.045 351.519 285.696 347.59 285.696 343.047C285.696 338.011 289.774 333.874 294.982 333.422V330.598C294.982 328.503 296.781 326.804 299 326.804C301.219 326.804 303.018 328.503 303.018 330.598Z" fill="#0C098C"/>
</g>
<defs>
<clipPath id="clip0_94_392">
<rect width="83" height="85" fill="white" transform="translate(254 629)"/>
</clipPath>
<clipPath id="clip1_94_392">
<rect width="108" height="101" fill="white" transform="translate(0 607)"/>
</clipPath>
<clipPath id="clip2_94_392">
<rect width="89" height="86" fill="white" transform="translate(132 543)"/>
</clipPath>
<clipPath id="clip3_94_392">
<rect width="83" height="89" fill="white" transform="translate(135 61)"/>
</clipPath>
<clipPath id="clip4_94_392">
<rect width="87" height="88" fill="white" transform="translate(255)"/>
</clipPath>
<clipPath id="clip5_94_392">
<rect width="88" height="87" fill="white" transform="translate(0 134)"/>
</clipPath>
<clipPath id="clip6_94_392">
<rect width="90" height="90" fill="white" transform="translate(254 138)"/>
</clipPath>
<clipPath id="clip7_94_392">
<rect width="76" height="81" fill="white" transform="translate(6 304)"/>
</clipPath>
<clipPath id="clip8_94_392">
<rect width="88" height="85" fill="white" transform="translate(5 439)"/>
</clipPath>
<clipPath id="clip9_94_392">
<rect width="90" height="85" fill="white" transform="translate(254 301)"/>
</clipPath>
</defs>
</svg>
